<svg width="20" height="20" viewBox="0 0 20 20" fill="none" xmlns="http://www.w3.org/2000/svg">
<path d="M6.97123 0C7.39386 0.00645432 7.71597 0.190109 7.97532 0.519866C8.49792 1.18349 9.16936 1.5373 9.98796 1.54317C10.7816 1.54904 11.4441 1.22221 11.9717 0.596145C12.501 -0.0310981 12.9169 -0.137888 13.6528 0.165465C14.6308 0.568567 15.5205 1.12775 16.3308 1.83185C16.7989 2.23848 16.9378 2.75952 16.7412 3.36681C16.1914 5.06312 17.1077 6.73127 18.7677 7.05633C19.3858 7.17721 19.7329 7.5498 19.8479 8.19406C20.0611 9.39045 20.045 10.5845 19.8318 11.7786C19.729 12.3536 19.3186 12.7643 18.7599 12.8541C17.0411 13.131 16.0703 14.8801 16.6801 16.6011C16.8995 17.2195 16.7639 17.7588 16.283 18.1754C15.5055 18.8496 14.6502 19.3876 13.7194 19.7913C13.158 20.0348 12.6121 19.8828 12.2283 19.38C11.0776 17.872 9.12715 17.8972 8.01531 19.4357C7.62989 19.9691 7.09119 20.1316 6.49972 19.8922C5.50063 19.4879 4.58428 18.934 3.7529 18.2217C3.23141 17.7746 3.0959 17.2342 3.35359 16.5794C3.84787 15.3226 3.46744 13.9384 2.42169 13.1979C2.09458 12.9661 1.73582 12.8183 1.34373 12.762C0.581775 12.6528 0.230785 12.2978 0.109716 11.4893C-0.0630021 10.3334 -0.0285696 9.17981 0.190243 8.03387C0.306314 7.4254 0.710619 7.05164 1.31319 6.96656C3.04648 6.7213 4.04502 4.9845 3.453 3.24242C3.23586 2.60227 3.38525 2.06128 3.89396 1.64351C4.68813 0.990445 5.55783 0.479967 6.49861 0.104443C6.58914 0.0680638 6.68355 0.0404862 6.77796 0.0187762C6.84516 0.00352054 6.91569 0.00469405 6.97123 0ZM10.0185 6.47603C8.16748 6.47662 6.66911 8.05089 6.67133 9.99188C6.67355 11.944 8.16193 13.5148 10.0107 13.5165C11.8473 13.5183 13.339 11.9317 13.3374 9.97838C13.3357 8.05851 11.8357 6.47545 10.0191 6.47603H10.0185Z" fill="black"/>
</svg>
