<svg width="21" height="21" viewBox="0 0 21 21" fill="none" xmlns="http://www.w3.org/2000/svg">
<g clip-path="url(#clip0_311_2348)">
<path d="M16.4995 10.4973C11.5032 10.2911 8.81318 15.8231 11.6009 19.4923C11.5145 19.4966 11.4406 19.5035 11.3667 19.5035C8.15606 19.5035 4.94518 19.5035 1.73409 19.5035C0.698022 19.5035 0.000626025 18.8055 0 17.7673C0 12.5459 0 7.32455 0 2.10317C0 1.42647 0.282967 0.905797 0.880194 0.586248C1.47742 0.266699 2.05023 0.330609 2.60176 0.711562C3.02558 1.00354 3.57648 1.00041 3.97463 0.659556C4.4682 0.235844 5.09678 0.00255678 5.74704 0.00175259C6.3973 0.000948397 7.02645 0.23268 7.52106 0.655169C7.72203 0.830071 7.97937 0.926395 8.24568 0.926395C8.512 0.926395 8.76935 0.830071 8.97031 0.655169C9.46873 0.230727 10.1024 -0.0013047 10.7568 0.000993472C11.4112 0.00329164 12.0432 0.239769 12.5387 0.667701C12.9293 1.00479 13.4777 1.00041 13.9128 0.705296C14.458 0.332489 15.0315 0.266698 15.6149 0.574969C16.2134 0.888252 16.5001 1.41269 16.5008 2.08875C16.5008 4.81682 16.5008 7.5451 16.5008 10.2736L16.4995 10.4973ZM9.68085 6.74727C10.5786 6.74727 11.4759 6.74727 12.3728 6.74727C12.8567 6.74727 13.191 6.4484 13.1997 6.01294C13.2085 5.57748 12.8592 5.24352 12.3728 5.24352C10.5781 5.24101 8.78355 5.24101 6.98894 5.24352C6.49376 5.24352 6.15007 5.5568 6.14944 5.9954C6.14881 6.43399 6.48812 6.74727 6.98894 6.74727C7.88499 6.74727 8.78229 6.74727 9.68085 6.74727ZM9.68085 10.6426C10.5704 10.6426 11.4606 10.6426 12.3502 10.6426C12.459 10.6464 12.5677 10.6348 12.6732 10.6082C12.843 10.5576 12.9888 10.4473 13.0837 10.2976C13.1786 10.1479 13.2163 9.96892 13.1897 9.79364C13.1271 9.40392 12.8235 9.14577 12.3978 9.14514C10.5948 9.14222 8.79189 9.14222 6.98894 9.14514C6.49376 9.14514 6.14944 9.45843 6.14881 9.89702C6.14819 10.3356 6.49062 10.6439 6.98769 10.6451C7.88457 10.6431 8.78229 10.6414 9.68085 10.6401V10.6426ZM7.94426 14.3914C8.29483 14.3914 8.64541 14.3964 8.99598 14.3914C9.19082 14.3894 9.37715 14.3112 9.51523 14.1736C9.65331 14.0361 9.7322 13.8499 9.73506 13.6549C9.73792 13.4599 9.66453 13.2715 9.53054 13.1299C9.39655 12.9883 9.21259 12.9048 9.01789 12.897C8.30923 12.8832 7.59932 12.8845 6.88941 12.897C6.79123 12.8974 6.69408 12.9171 6.60354 12.9551C6.513 12.9931 6.43085 13.0486 6.36181 13.1185C6.29276 13.1883 6.23819 13.2712 6.20121 13.3622C6.16423 13.4532 6.14557 13.5506 6.14631 13.6489C6.14631 14.0631 6.47686 14.3876 6.91445 14.3945C7.25814 14.397 7.60119 14.3914 7.94426 14.3914ZM4.17183 10.7874C4.40857 10.795 4.63877 10.7089 4.81247 10.5477C4.98616 10.3866 5.08933 10.1633 5.0996 9.92647C5.10582 9.80661 5.08807 9.68672 5.04739 9.57381C5.0067 9.46091 4.94391 9.35727 4.86269 9.26898C4.78146 9.18068 4.68344 9.10951 4.57437 9.05962C4.4653 9.00974 4.34738 8.98216 4.22752 8.97849C4.10766 8.97481 3.98827 8.99513 3.87636 9.03825C3.76444 9.08136 3.66225 9.14641 3.57578 9.22957C3.48932 9.31273 3.42031 9.41233 3.37281 9.52253C3.3253 9.63273 3.30027 9.75132 3.29915 9.87133C3.29394 10.1085 3.38286 10.3381 3.54642 10.5098C3.70999 10.6815 3.93488 10.7813 4.17183 10.7874ZM4.18936 14.5411C4.36679 14.5426 4.54067 14.4914 4.68898 14.3939C4.83729 14.2964 4.95336 14.1571 5.02249 13.9935C5.09162 13.8299 5.1107 13.6495 5.07732 13.4751C5.04394 13.3007 4.95959 13.1401 4.83496 13.0137C4.71033 12.8873 4.55102 12.8008 4.37721 12.765C4.20341 12.7293 4.02292 12.746 3.8586 12.813C3.69428 12.88 3.55351 12.9943 3.45415 13.1415C3.35478 13.2886 3.30127 13.4619 3.3004 13.6395C3.30038 13.8768 3.39384 14.1045 3.56049 14.2733C3.72713 14.4421 3.95354 14.5383 4.19061 14.5411H4.18936ZM4.20313 5.09502C4.02613 5.09539 3.85321 5.14827 3.70622 5.24698C3.55924 5.34568 3.44479 5.48578 3.37734 5.64957C3.30989 5.81336 3.29246 5.99349 3.32727 6.16719C3.36207 6.34089 3.44755 6.50036 3.57288 6.62545C3.69822 6.75055 3.85779 6.83564 4.03143 6.86999C4.20508 6.90434 4.385 6.8864 4.54846 6.81843C4.71192 6.75047 4.85158 6.63553 4.94979 6.48814C5.048 6.34076 5.10035 6.16754 5.10022 5.99038C5.10014 5.87272 5.07691 5.75623 5.03184 5.64755C4.98678 5.53888 4.92076 5.44015 4.83758 5.35701C4.75439 5.27386 4.65566 5.20793 4.54702 5.16298C4.43837 5.11803 4.32195 5.09494 4.20438 5.09502H4.20313Z" fill="white"/>
<path d="M20.9992 16.1311C20.9974 16.7735 20.869 17.4092 20.6213 18.0018C20.3736 18.5944 20.0115 19.1323 19.5557 19.5846C19.0999 20.0369 18.5595 20.3948 17.9653 20.6377C17.3711 20.8806 16.7349 21.0037 16.0931 21.0001C13.3924 20.9876 11.2301 18.7758 11.2501 16.0446C11.2702 13.388 13.4894 11.2269 16.1795 11.2457C18.8344 11.2639 21.0117 13.4707 20.9992 16.1311ZM15.6154 16.0822C15.4583 15.9149 15.3212 15.7558 15.1703 15.611C14.8517 15.3053 14.3934 15.3078 14.0998 15.6079C14.0308 15.6775 13.9763 15.7601 13.9394 15.8509C13.9024 15.9417 13.8838 16.0389 13.8846 16.137C13.8855 16.235 13.9057 16.3319 13.9441 16.4221C13.9825 16.5123 14.0384 16.5939 14.1086 16.6624C14.4283 16.9945 14.7538 17.3207 15.0852 17.6411C15.4057 17.9544 15.8364 17.9638 16.1557 17.6524C16.8299 16.9907 17.4954 16.3197 18.159 15.6474C18.253 15.5576 18.3204 15.4435 18.3536 15.3178C18.3867 15.192 18.3844 15.0595 18.3468 14.935C18.1915 14.3648 17.516 14.1831 17.0822 14.6073C16.597 15.0809 16.125 15.5684 15.6142 16.0834L15.6154 16.0822Z" fill="white"/>
</g>
<defs>
<clipPath id="clip0_311_2348">
<rect width="21" height="21" fill="white"/>
</clipPath>
</defs>
</svg>
