<svg width="20" height="20" viewBox="0 0 20 20" fill="none" xmlns="http://www.w3.org/2000/svg">
<path d="M8.58618 10L0.293226 1.70905C0.200262 1.61608 0.126519 1.50572 0.0762071 1.38426C0.0258952 1.26279 9.79536e-10 1.13261 0 1.00114C-9.79536e-10 0.869666 0.0258952 0.739482 0.0762071 0.618018C0.126519 0.496555 0.200262 0.38619 0.293226 0.293226C0.38619 0.200262 0.496555 0.126519 0.618018 0.0762071C0.739482 0.0258952 0.869666 -9.79536e-10 1.00114 0C1.13261 9.79536e-10 1.26279 0.0258952 1.38426 0.0762071C1.50572 0.126519 1.61608 0.200262 1.70905 0.293226L10 8.58618L18.291 0.293226C18.4787 0.105476 18.7333 0 18.9989 0C19.2644 0 19.519 0.105476 19.7068 0.293226C19.8945 0.480976 20 0.735619 20 1.00114C20 1.26665 19.8945 1.5213 19.7068 1.70905L11.4138 10L19.7068 18.291C19.8945 18.4787 20 18.7333 20 18.9989C20 19.2644 19.8945 19.519 19.7068 19.7068C19.519 19.8945 19.2644 20 18.9989 20C18.7333 20 18.4787 19.8945 18.291 19.7068L10 11.4138L1.70905 19.7068C1.5213 19.8945 1.26665 20 1.00114 20C0.735619 20 0.480976 19.8945 0.293226 19.7068C0.105476 19.519 0 19.2644 0 18.9989C0 18.7333 0.105476 18.4787 0.293226 18.291L8.58618 10Z" fill="#121C2A"/>
</svg>
