<svg width="20" height="20" viewBox="0 0 20 20" fill="none" xmlns="http://www.w3.org/2000/svg">
<g clip-path="url(#clip0_314_4383)">
<path d="M12.0701 0H18.7889C19.1264 0.105859 19.4611 0.234375 19.6619 0.539843C19.8049 0.75664 19.8893 1.01172 19.9998 1.25V10.4297C19.9915 10.4395 19.9845 10.4504 19.9791 10.4621C19.7377 11.3016 19.2482 11.6699 18.3709 11.6699C16.3917 11.6699 14.4126 11.6691 12.4334 11.6676C12.2644 11.6706 12.0958 11.653 11.9311 11.6152C11.2482 11.4422 10.8303 10.873 10.8295 10.123C10.8277 8.29414 10.8277 6.4651 10.8295 4.63594C10.8295 3.60078 10.8271 2.56563 10.8295 1.53086C10.8314 0.851953 11.1811 0.324609 11.7748 0.0964844C11.8721 0.059375 11.9721 0.0316406 12.0701 0Z" fill="#121C2A"/>
<path d="M0 18.7891V9.57031C0.00744585 9.55969 0.013731 9.54829 0.0187492 9.53633C0.270702 8.69102 0.751952 8.33008 1.62969 8.33008C3.62135 8.33008 5.61354 8.33008 7.60625 8.33008C8.5543 8.33008 9.16875 8.94687 9.17109 9.89609C9.17305 10.6707 9.17109 11.4453 9.17109 12.2199V18.4492C9.17109 19.0852 8.90664 19.566 8.33164 19.8555C8.20586 19.9187 8.06484 19.952 7.93086 19.9992H1.25C0.789062 19.8891 0.407421 19.6648 0.179687 19.2332C0.105468 19.0934 0.0589844 18.9379 0 18.7891Z" fill="#121C2A"/>
<path d="M7.93008 0C8.17266 0.117187 8.44062 0.201953 8.65234 0.361328C9.01641 0.634766 9.16758 1.03906 9.16875 1.4918C9.17227 2.72187 9.17812 3.95273 9.16875 5.18164C9.16133 6.04101 8.5418 6.6625 7.68437 6.66601C5.62161 6.67591 3.55846 6.67591 1.49492 6.66601C0.760939 6.66367 0.219142 6.22422 0.0375013 5.51797C0.0275538 5.4873 0.0156799 5.45729 0.00195312 5.42812V1.20937C0.0257812 1.14375 0.0515632 1.07852 0.0734382 1.01406C0.132428 0.823929 0.230868 0.64838 0.362325 0.498883C0.493783 0.349386 0.655302 0.229305 0.83633 0.146484C0.957814 0.0890625 1.08711 0.0484373 1.21289 0.00039041L7.93008 0Z" fill="#121C2A"/>
<path d="M12.0707 19.9998C11.9313 19.9491 11.7848 19.912 11.6535 19.8436C11.1238 19.5752 10.8418 19.1327 10.8356 18.5448C10.8227 17.2885 10.8184 16.0323 10.8356 14.776C10.8477 13.9338 11.4828 13.3338 12.3371 13.3307C13.834 13.3241 15.3313 13.3288 16.8293 13.3288C17.3629 13.3288 17.8965 13.3288 18.4309 13.3288C19.2441 13.3307 19.7641 13.7327 19.9731 14.5182C19.9802 14.5362 19.9895 14.5532 20.0008 14.569V18.7487C19.8988 18.976 19.8227 19.2202 19.6883 19.4264C19.4727 19.7577 19.1234 19.9061 18.7508 19.9987L12.0707 19.9998Z" fill="#121C2A"/>
</g>
<defs>
<clipPath id="clip0_314_4383">
<rect width="20" height="20" fill="white"/>
</clipPath>
</defs>
</svg>
