<svg width="13" height="15" viewBox="0 0 13 15" fill="none" xmlns="http://www.w3.org/2000/svg">
<g clip-path="url(#clip0_455_6931)">
<path d="M2.80175 15H10.2013C10.2124 14.9916 10.2246 14.9849 10.2375 14.9798C10.8776 14.8438 11.272 14.4143 11.3325 13.7582C11.4092 12.9228 11.4714 12.086 11.5402 11.2498C11.6229 10.2435 11.7059 9.23731 11.7891 8.23125C11.8632 7.33178 11.9369 6.43231 12.0102 5.53285C12.0406 5.15988 12.0696 4.78692 12.0996 4.40552H0.910695C0.907131 4.42129 0.905069 4.43738 0.904542 4.45356C1.00924 5.74176 1.11394 7.03021 1.21863 8.3189C1.36338 10.0792 1.50679 11.8395 1.64888 13.5998C1.67964 13.9845 1.77227 14.3373 2.05452 14.6182C2.26476 14.8265 2.52384 14.9307 2.80175 15ZM8.23391 12.8264C8.26105 12.3632 8.28168 12.0078 8.30339 11.6528C8.37721 10.4456 8.45127 9.23853 8.52557 8.03175C8.57381 7.25281 8.62206 6.474 8.67031 5.69531C8.67169 5.61892 8.69366 5.54437 8.73384 5.47973C8.77402 5.41509 8.83089 5.36282 8.89828 5.32858C8.96521 5.29171 9.04062 5.27355 9.11676 5.27598C9.1929 5.27842 9.26703 5.30134 9.33153 5.34241C9.39604 5.38348 9.4486 5.44121 9.48381 5.50968C9.51902 5.57814 9.53561 5.65487 9.53189 5.73198C9.52176 6.11228 9.49064 6.49148 9.46711 6.87141C9.39474 8.05889 9.32153 9.24636 9.24747 10.4338C9.19922 11.2274 9.15098 12.0208 9.10273 12.8139C9.09043 13.0068 8.99417 13.144 8.81325 13.2122C8.5006 13.3277 8.22378 13.089 8.23391 12.8264ZM3.46756 5.75875C3.45779 5.50204 3.61918 5.29264 3.87356 5.2787C3.99049 5.27384 4.10454 5.31622 4.19065 5.39654C4.27675 5.47686 4.32787 5.58854 4.33276 5.70704C4.38305 6.51055 4.43046 7.31406 4.48003 8.11756C4.54299 9.14049 4.60644 10.1631 4.67037 11.1853C4.7033 11.7163 4.73948 12.2469 4.76373 12.778C4.76808 12.8368 4.7605 12.8959 4.74144 12.9516C4.72237 13.0073 4.69224 13.0584 4.6529 13.1019C4.61356 13.1453 4.56586 13.1801 4.51272 13.2041C4.45958 13.2282 4.40215 13.2409 4.34397 13.2415C4.10624 13.247 3.91916 13.0681 3.90034 12.8143C3.88876 12.6536 3.88044 12.493 3.87067 12.332C3.80915 11.3243 3.74776 10.3162 3.68648 9.30797C3.61556 8.1392 3.54319 6.97043 3.46756 5.75875ZM6.06749 9.25993V5.83357C6.06749 5.48224 6.22743 5.27797 6.50172 5.27797C6.776 5.27797 6.93594 5.48224 6.93594 5.83357C6.93594 8.11805 6.93594 10.4023 6.93594 12.6863C6.93784 12.7352 6.937 12.7842 6.93341 12.833C6.91314 13.0193 6.81942 13.152 6.64392 13.2158C6.34865 13.3229 6.07038 13.1036 6.07002 12.76C6.06737 11.5931 6.06652 10.4264 6.06749 9.25993Z" fill="#121C2A"/>
<path d="M9.52231 1.76263C9.52231 1.55799 9.54077 1.37133 9.51906 1.18943C9.43692 0.494842 8.92525 0.015891 8.23339 0.00928981C7.07762 -0.00244556 5.92174 -0.00244556 4.76573 0.00928981C4.02284 0.0173579 3.48512 0.582123 3.46631 1.33575C3.46305 1.47144 3.46631 1.6075 3.46631 1.76226H3.30347C2.50414 1.76226 1.70443 1.76043 0.905097 1.76226C0.470871 1.76226 0.13543 2.0164 0.0304918 2.41064C-0.000442505 2.52512 -0.00795078 2.6448 0.00842381 2.76233C0.0247993 2.87986 0.0647154 2.99275 0.125717 3.09407C0.18672 3.1954 0.26752 3.28301 0.363154 3.35152C0.458788 3.42004 0.567233 3.46801 0.681831 3.49249C0.771535 3.51052 0.862869 3.51888 0.954309 3.51743C4.65367 3.51743 8.3528 3.51743 12.0517 3.51743C12.496 3.51743 12.825 3.3051 12.9491 2.94057C13.1524 2.34426 12.7472 1.76703 12.111 1.76226C11.3117 1.75566 10.512 1.76043 9.71229 1.76043L9.52231 1.76263ZM8.66797 1.75493H4.33295C4.33295 1.61227 4.33042 1.47695 4.33295 1.34162C4.3391 1.06621 4.51605 0.889443 4.7907 0.884676C4.94955 0.881742 5.10841 0.884676 5.2669 0.884676C6.23884 0.884676 7.21078 0.884676 8.18272 0.884676C8.49283 0.884676 8.66435 1.06034 8.66725 1.37353C8.6687 1.49528 8.66797 1.61704 8.66797 1.75493Z" fill="#121C2A"/>
</g>
<defs>
<clipPath id="clip0_455_6931">
<rect width="13" height="15" fill="white" transform="matrix(-1 0 0 1 13 0)"/>
</clipPath>
</defs>
</svg>
