<svg width="66" height="57" viewBox="0 0 66 57" fill="none" xmlns="http://www.w3.org/2000/svg">
<path d="M59.8125 52.9287H6.1875C2.76375 52.9287 0 50.2008 0 46.8215V10.1787C0 6.79939 2.76375 4.07153 6.1875 4.07153H59.8125C63.2363 4.07153 66 6.79939 66 10.1787V46.8215C66 50.2008 63.2363 52.9287 59.8125 52.9287ZM6.1875 8.14296C5.0325 8.14296 4.125 9.03868 4.125 10.1787V46.8215C4.125 47.9615 5.0325 48.8573 6.1875 48.8573H59.8125C60.9675 48.8573 61.875 47.9615 61.875 46.8215V10.1787C61.875 9.03868 60.9675 8.14296 59.8125 8.14296H6.1875Z" fill="#5D5D5D"/>
<path d="M33.0001 36.48C30.1126 36.48 27.4726 35.34 25.4926 33.2635L3.83636 10.545C3.05261 9.73067 3.09386 8.42782 3.91886 7.65425C4.74386 6.88067 6.06386 6.92139 6.84761 7.73567L28.5039 30.4542C30.8551 32.9378 35.1451 32.9378 37.4964 30.4542L59.1526 7.77639C59.9364 6.9621 61.2564 6.92139 62.0814 7.69496C62.9064 8.46853 62.9476 9.77139 62.1639 10.5857L40.5076 33.3042C38.5276 35.3807 35.8876 36.5207 33.0001 36.5207V36.48Z" fill="#5D5D5D"/>
</svg>
