<svg width="22" height="23" viewBox="0 0 22 23" fill="none" xmlns="http://www.w3.org/2000/svg">
<g clip-path="url(#clip0_311_2373)">
<path d="M11.3008 22.9936V22.7337C11.3008 19.0521 11.3008 15.3705 11.3008 11.6888C11.3008 11.5329 11.3199 11.429 11.4892 11.34C14.9118 9.58706 18.3319 7.82963 21.7496 6.06764C21.8178 6.03386 21.8861 6.00267 21.9817 5.95654C21.9885 6.0553 21.9974 6.13066 21.9974 6.20603C21.9974 9.89589 21.9987 13.5851 22.0015 17.2737C22.0015 17.4367 21.9598 17.5335 21.7967 17.6147C18.3672 19.3733 14.94 21.1355 11.5151 22.9013C11.4571 22.9306 11.395 22.9527 11.3008 22.9936Z" fill="white"/>
<path d="M10.6844 22.9999L8.3635 21.8064C5.66308 20.4173 2.96152 19.03 0.258817 17.6444C0.054032 17.5392 -0.00262966 17.4229 -0.00194705 17.2124C0.00442402 13.5567 0.00602146 9.90088 0.00283592 6.24481V5.93945C0.164616 6.02132 0.290217 6.08434 0.412405 6.14801C1.43633 6.67556 2.46025 7.20896 3.48963 7.72483C3.70124 7.83073 3.76814 7.95287 3.76678 8.17442C3.75585 9.51215 3.76063 10.8499 3.76131 12.187C3.76131 12.6905 3.87599 12.7717 4.36816 12.6138C4.6412 12.5268 4.92039 12.4501 5.18729 12.3539C5.33406 12.2994 5.41051 12.3266 5.49925 12.4494C5.86445 12.9575 6.24398 13.4565 6.61328 13.9619C6.7184 14.1062 6.83513 14.2218 7.0324 14.1568C7.22968 14.0919 7.22422 13.9334 7.22422 13.7735C7.22422 12.5088 7.22422 11.2442 7.22422 9.97993V9.69082C7.28444 9.70737 7.34349 9.72755 7.40102 9.75124C8.44132 10.2853 9.483 10.818 10.5178 11.3618C10.5636 11.389 10.6025 11.4255 10.6318 11.4686C10.661 11.5117 10.6799 11.5604 10.6871 11.6113C10.6953 15.3644 10.6976 19.1177 10.694 22.8713C10.6994 22.8973 10.6933 22.9291 10.6844 22.9999ZM5.09105 18.1765C5.17092 18.1116 5.30197 18.0466 5.34771 17.9465C5.43508 17.7594 5.29174 17.6503 5.13064 17.5678C3.89647 16.9337 2.66208 16.2991 1.42745 15.6641C1.18376 15.5388 1.01105 15.5654 0.927774 15.7421C0.826065 15.9604 0.966007 16.067 1.14758 16.1612C2.36719 16.7875 3.58588 17.4155 4.80366 18.0453C4.87807 18.083 4.95931 18.1148 5.09105 18.1765ZM2.88688 17.4853C2.85821 17.4508 2.81248 17.3553 2.73466 17.3111C2.26844 17.0604 1.79538 16.82 1.32164 16.5822C1.1585 16.5003 1.0213 16.5536 0.932557 16.7004C0.911543 16.7294 0.897309 16.7623 0.89081 16.797C0.884312 16.8317 0.885698 16.8673 0.894885 16.9014C0.904072 16.9355 0.920845 16.9674 0.944065 16.9948C0.967284 17.0222 0.996418 17.0446 1.02949 17.0604C1.50732 17.3202 1.99538 17.5723 2.4896 17.8075C2.69165 17.9017 2.89712 17.749 2.88688 17.4853Z" fill="white"/>
<path d="M0.333984 5.44361C1.0166 5.09147 1.66508 4.75688 2.31357 4.42293C5.14096 2.96717 7.96904 1.51271 10.7978 0.0595506C10.8886 0.013422 11.0387 -0.022962 11.1159 0.0160199C12.318 0.622839 13.5119 1.24265 14.7337 1.87481C14.6368 1.93068 14.5631 1.97811 14.4853 2.01774C11.0827 3.77063 7.67869 5.52135 4.27335 7.26991C4.17779 7.31929 4.01737 7.34852 3.93205 7.30629C2.76 6.71572 1.59546 6.11085 0.428869 5.50923C0.411121 5.49818 0.392007 5.48194 0.333984 5.44361Z" fill="white"/>
<path d="M21.6716 5.46074L19.0592 6.80691C16.4484 8.14963 13.8386 9.49515 11.2296 10.8435C11.0549 10.9338 10.932 10.9228 10.7675 10.8363C9.78384 10.3211 8.79473 9.81567 7.80767 9.30696C7.73941 9.27317 7.67661 9.23614 7.57422 9.17702L9.06436 8.40842C12.0615 6.86604 15.0618 5.32452 18.0653 3.78386C18.1527 3.73903 18.3022 3.71889 18.3827 3.75853C19.4428 4.29193 20.4989 4.83768 21.5501 5.38277C21.5801 5.39577 21.6054 5.41656 21.6716 5.46074Z" fill="white"/>
<path d="M4.69531 7.70586L5.49875 7.2894C8.71569 5.63397 11.9319 3.97723 15.1475 2.3192C15.3189 2.23019 15.4417 2.22759 15.6117 2.3192C16.181 2.62651 16.7619 2.91497 17.338 3.21124C17.4186 3.25282 17.4957 3.29895 17.6111 3.36457C17.1797 3.58741 16.7803 3.79467 16.3824 3.99997C13.3156 5.57917 10.2491 7.16011 7.18276 8.74278C7.00801 8.83243 6.87558 8.84023 6.6981 8.74278C6.04689 8.39259 5.38475 8.06059 4.69531 7.70586Z" fill="white"/>
<path d="M4.36719 12.018V8.18994C4.47572 8.24257 4.56378 8.28285 4.64979 8.32703C5.24844 8.63369 5.84915 8.9371 6.44166 9.25415C6.52835 9.30028 6.63348 9.41073 6.63416 9.49259C6.64644 10.6107 6.64235 11.7289 6.6403 12.8463C6.63182 12.8812 6.61899 12.915 6.60207 12.947L5.85529 11.9426C5.63139 11.6418 5.58224 11.6275 5.22114 11.7438L4.36719 12.018Z" fill="white"/>
</g>
<defs>
<clipPath id="clip0_311_2373">
<rect width="22" height="23" fill="white"/>
</clipPath>
</defs>
</svg>
