<svg width="18" height="20" viewBox="0 0 18 20" fill="none" xmlns="http://www.w3.org/2000/svg">
<g clip-path="url(#clip0_314_4360)">
<path d="M12.3032 0.00010065C12.4282 0.0334992 12.5543 0.0632449 12.6782 0.10134C13.5901 0.381053 14.2068 1.20297 14.2204 2.18875C14.2325 3.09312 14.2267 3.99854 14.2204 4.90238C14.2204 5.33082 13.9053 5.64968 13.504 5.65437C13.1027 5.65907 12.7786 5.33187 12.777 4.89456C12.7738 4.02202 12.777 3.14948 12.777 2.27747C12.777 1.7243 12.4865 1.43572 11.9287 1.43572C9.17696 1.43572 6.42488 1.43572 3.67246 1.43572C3.61678 1.43572 3.56111 1.44146 3.45815 1.4472C3.5506 1.50356 3.60261 1.53696 3.65618 1.56775C4.98775 2.33278 6.31615 3.10304 7.65244 3.85972C8.46924 4.32261 8.86057 5.00362 8.85637 5.9393C8.84691 8.99266 8.8527 12.045 8.8527 15.0994V15.3744C8.93254 15.3786 9.00134 15.3848 9.07015 15.3848C10.0202 15.3848 10.9704 15.3848 11.9208 15.3848C12.4813 15.3848 12.7765 15.0874 12.777 14.5253C12.777 13.7572 12.7733 12.989 12.777 12.2208C12.7747 12.0531 12.8327 11.89 12.9407 11.7609C13.0486 11.6319 13.1994 11.5453 13.3658 11.5169C13.5279 11.4843 13.6963 11.5096 13.8415 11.5884C13.9866 11.6671 14.099 11.7943 14.159 11.9474C14.1976 12.0508 14.2177 12.1601 14.2183 12.2704C14.2236 13.0448 14.2278 13.8198 14.2183 14.5942C14.2052 15.8347 13.3164 16.7646 12.0679 16.8032C11.0798 16.834 10.0897 16.8121 9.1001 16.8137H8.84954C8.84954 17.1445 8.84324 17.4488 8.84954 17.753C8.88263 19.1949 7.65192 20.045 6.57407 19.997C6.2193 19.9814 5.87368 19.8802 5.56712 19.7021C4.07535 18.8478 2.58253 17.9967 1.09496 17.1357C0.373762 16.7182 0.00187173 16.0768 0.000821192 15.2507C-0.00548206 10.9019 -0.00548206 6.55318 0.000821192 2.20441C0.000821192 1.09234 0.743552 0.238066 1.84977 0.0298466C1.8742 0.0221241 1.89764 0.0116168 1.91963 -0.00146484L12.3032 0.00010065Z" fill="black"/>
<path d="M15.5406 7.69193C15.2643 7.41848 15.0285 7.18625 14.7942 6.95246C14.4685 6.6263 14.447 6.18847 14.7417 5.89362C15.0363 5.59878 15.477 5.60921 15.808 5.93485C16.4534 6.57255 17.0972 7.21217 17.7394 7.8537C18.0871 8.20126 18.0887 8.61039 17.7446 8.95429C17.1017 9.59478 16.4569 10.2346 15.8101 10.8737C15.4797 11.2003 15.0432 11.2202 14.7448 10.9258C14.4465 10.6315 14.4643 10.1879 14.7973 9.8524C15.0187 9.63009 15.2398 9.40813 15.4608 9.18651C15.4681 9.17921 15.4676 9.16407 15.4797 9.12232H15.2491C13.598 9.12232 11.9471 9.12232 10.2963 9.12232C9.80359 9.12232 9.4858 8.82278 9.49841 8.38129C9.50266 8.20372 9.57422 8.03429 9.69877 7.90687C9.82333 7.77945 9.9917 7.70343 10.1702 7.69401C10.2422 7.68984 10.3142 7.69401 10.3861 7.69401H15.5369L15.5406 7.69193Z" fill="black"/>
</g>
<defs>
<clipPath id="clip0_314_4360">
<rect width="18" height="20" fill="white"/>
</clipPath>
</defs>
</svg>
