<svg width="19" height="20" viewBox="0 0 19 20" fill="none" xmlns="http://www.w3.org/2000/svg">
<g clip-path="url(#clip0_309_2311)">
<path d="M9.75977 19.9945V19.7685C9.75977 16.5671 9.75977 13.3657 9.75977 10.1643C9.75977 10.0287 9.77627 9.93831 9.92248 9.86091C12.8784 8.33666 15.8321 6.80846 18.7837 5.2763C18.8427 5.24692 18.9016 5.2198 18.9842 5.17969C18.9901 5.26556 18.9977 5.3311 18.9977 5.39663C18.9977 8.6052 18.9989 11.8132 19.0013 15.0207C19.0013 15.1625 18.9653 15.2466 18.8244 15.3173C15.8626 16.8464 12.9028 18.3787 9.94488 19.9143C9.89477 19.9397 9.84112 19.9589 9.75977 19.9945Z" fill="#121C2A"/>
<path d="M9.22717 20.0002L7.22276 18.9624C4.89057 17.7545 2.55741 16.5481 0.223257 15.3433C0.0463977 15.2518 -0.00253741 15.1506 -0.00194788 14.9676C0.00355441 11.7888 0.00493402 8.60976 0.00218287 5.43057V5.16504C0.141902 5.23622 0.250376 5.29102 0.355902 5.34639C1.2402 5.80513 2.12449 6.26896 3.01351 6.71754C3.19626 6.80962 3.25404 6.91584 3.25286 7.10849C3.24343 8.27173 3.24755 9.43498 3.24814 10.5977C3.24814 11.0355 3.34718 11.1061 3.77223 10.9688C4.00804 10.8931 4.24916 10.8265 4.47967 10.7428C4.60642 10.6954 4.67245 10.7191 4.74909 10.8259C5.06449 11.2677 5.39226 11.7016 5.7112 12.1411C5.80199 12.2665 5.9028 12.3671 6.07317 12.3106C6.24355 12.2541 6.23884 12.1163 6.23884 11.9773C6.23884 10.8775 6.23884 9.7779 6.23884 8.6785V8.42709C6.29084 8.44149 6.34184 8.45903 6.39152 8.47963C7.28997 8.94403 8.1896 9.40729 9.08332 9.88016C9.12285 9.90379 9.15644 9.93548 9.18171 9.97298C9.20699 10.0105 9.22331 10.0529 9.22953 10.0971C9.2366 13.3607 9.23856 16.6244 9.23542 19.8884C9.24014 19.911 9.23483 19.9386 9.22717 20.0002ZM4.39655 15.806C4.46553 15.7495 4.57871 15.693 4.61821 15.606C4.69367 15.4433 4.56987 15.3484 4.43074 15.2766C3.36487 14.7252 2.2988 14.1734 1.23253 13.6213C1.02207 13.5123 0.872916 13.5354 0.800993 13.6891C0.713153 13.8789 0.834013 13.9716 0.990828 14.0535C2.04412 14.5981 3.09663 15.1442 4.14835 15.6919C4.21261 15.7246 4.28277 15.7523 4.39655 15.806ZM2.49295 15.2049C2.46819 15.1749 2.42869 15.0919 2.36149 15.0535C1.95884 14.8354 1.55029 14.6264 1.14115 14.4196C1.00026 14.3484 0.881763 14.3947 0.805124 14.5224C0.786975 14.5476 0.774682 14.5763 0.76907 14.6064C0.763458 14.6366 0.764654 14.6675 0.772589 14.6972C0.780524 14.7268 0.795009 14.7545 0.815062 14.7784C0.835116 14.8022 0.860276 14.8217 0.88884 14.8354C1.30151 15.0614 1.72302 15.2806 2.14984 15.4851C2.32434 15.567 2.5018 15.4342 2.49295 15.2049Z" fill="#121C2A"/>
<path d="M0.289062 4.734C0.878594 4.42779 1.43865 4.13684 1.9987 3.84645C4.44054 2.58057 6.88297 1.31583 9.32599 0.0522078C9.4044 0.0120959 9.53409 -0.0195424 9.60071 0.014355C10.6389 0.542024 11.67 1.08099 12.7252 1.63069C12.6415 1.67928 12.5778 1.72052 12.5106 1.75498C9.57202 3.27923 6.63222 4.8016 3.69124 6.32209C3.60871 6.36502 3.47017 6.39045 3.39648 6.35372C2.38425 5.84018 1.37852 5.31421 0.371008 4.79106C0.35568 4.78145 0.339173 4.76733 0.289062 4.734Z" fill="#121C2A"/>
<path d="M18.716 4.74864L16.4599 5.91923C14.2051 7.0868 11.9511 8.25682 9.69795 9.4293C9.54703 9.50782 9.44091 9.49822 9.29884 9.42308C8.44932 8.97507 7.59509 8.53554 6.74263 8.09318C6.68368 8.0638 6.62945 8.0316 6.54102 7.98018L7.82796 7.31184C10.4164 5.97064 13.0076 4.63018 15.6015 3.29049C15.677 3.2515 15.8061 3.23399 15.8757 3.26845C16.7912 3.73228 17.7032 4.20684 18.6111 4.68084C18.637 4.69214 18.6588 4.71022 18.716 4.74864Z" fill="#121C2A"/>
<path d="M4.05469 6.70096L4.74857 6.33882C7.52683 4.89931 10.3045 3.45867 13.0816 2.01691C13.2296 1.93951 13.3357 1.93725 13.4825 2.01691C13.9741 2.28413 14.4758 2.53497 14.9734 2.79259C15.043 2.82875 15.1096 2.86886 15.2092 2.92592C14.8366 3.1197 14.4917 3.29992 14.148 3.47845C11.4995 4.85167 8.85111 6.22639 6.20294 7.60263C6.05202 7.68059 5.93765 7.68737 5.78437 7.60263C5.22196 7.29811 4.65011 7.00942 4.05469 6.70096Z" fill="#121C2A"/>
<path d="M3.77148 10.4508V7.12207C3.86522 7.16783 3.94127 7.20286 4.01555 7.24128C4.53257 7.50794 5.05136 7.77177 5.56307 8.04747C5.63794 8.08758 5.72873 8.18362 5.72932 8.25481C5.73993 9.2271 5.73639 10.1994 5.73463 11.1711C5.72731 11.2015 5.71622 11.2309 5.70161 11.2587L5.05667 10.3853C4.8633 10.1237 4.82085 10.1113 4.50899 10.2124L3.77148 10.4508Z" fill="#121C2A"/>
</g>
<defs>
<clipPath id="clip0_309_2311">
<rect width="19" height="20" fill="white"/>
</clipPath>
</defs>
</svg>
