<svg width="20" height="20" viewBox="0 0 20 20" fill="none" xmlns="http://www.w3.org/2000/svg">
<g clip-path="url(#clip0_314_4421)">
<path d="M15.7138 9.99745C10.9554 9.80113 8.39351 15.0697 11.0484 18.5641C10.9662 18.5683 10.8958 18.5748 10.8255 18.5748C7.76768 18.5748 4.7097 18.5748 1.65152 18.5748C0.664783 18.5748 0.000596214 17.9101 0 16.9213C0 11.9486 0 6.97581 0 2.00306C0 1.35859 0.269492 0.86271 0.83828 0.558378C1.40707 0.254046 1.9526 0.314912 2.47787 0.677724C2.88151 0.9558 3.40617 0.952816 3.78536 0.628195C4.25543 0.22466 4.85408 0.00248153 5.47337 0.00171563C6.09266 0.000949739 6.69185 0.221647 7.16292 0.624017C7.35431 0.79059 7.5994 0.882327 7.85303 0.882327C8.10667 0.882327 8.35176 0.79059 8.54315 0.624017C9.01784 0.219786 9.62132 -0.00119607 10.2446 0.000992667C10.8678 0.0031814 11.4697 0.228398 11.9416 0.635952C12.3136 0.956993 12.8359 0.952816 13.2503 0.671757C13.7696 0.316702 14.3157 0.254045 14.8714 0.547636C15.4414 0.846001 15.7144 1.34546 15.715 1.98934C15.715 4.5875 15.715 7.18586 15.715 9.78442L15.7138 9.99745ZM9.21986 6.42602C10.0748 6.42602 10.9294 6.42602 11.7836 6.42602C12.2444 6.42602 12.5628 6.14138 12.5712 5.72665C12.5795 5.31193 12.2468 4.99387 11.7836 4.99387C10.0744 4.99148 8.36528 4.99148 6.65613 4.99387C6.18453 4.99387 5.85721 5.29224 5.85661 5.70995C5.85601 6.12766 6.17916 6.42602 6.65613 6.42602C7.50952 6.42602 8.36409 6.42602 9.21986 6.42602ZM9.21986 10.1359C10.0671 10.1359 10.9149 10.1359 11.7621 10.1359C11.8657 10.1395 11.9693 10.1284 12.0698 10.1031C12.2314 10.0549 12.3703 9.94983 12.4607 9.80727C12.5511 9.66472 12.5869 9.49426 12.5616 9.32732C12.502 8.95616 12.2129 8.7103 11.8074 8.70971C10.0903 8.70692 8.37323 8.70692 6.65613 8.70971C6.18453 8.70971 5.85661 9.00807 5.85601 9.42578C5.85542 9.84349 6.18155 10.1371 6.65494 10.1383C7.50912 10.1363 8.36409 10.1347 9.21986 10.1335V10.1359ZM7.56596 13.7061C7.89984 13.7061 8.23372 13.7109 8.5676 13.7061C8.75316 13.7042 8.93062 13.6298 9.06213 13.4988C9.19363 13.3677 9.26876 13.1904 9.27149 13.0047C9.27421 12.819 9.20431 12.6396 9.0767 12.5047C8.9491 12.3699 8.77389 12.2903 8.58847 12.2829C7.91355 12.2698 7.23745 12.271 6.56134 12.2829C6.46784 12.2832 6.37531 12.302 6.28908 12.3382C6.20286 12.3744 6.12462 12.4273 6.05887 12.4938C5.99311 12.5604 5.94113 12.6392 5.90591 12.7259C5.87069 12.8126 5.85293 12.9054 5.85363 12.999C5.85363 13.3934 6.16844 13.7025 6.58519 13.7091C6.91251 13.7115 7.23923 13.7061 7.56596 13.7061ZM3.97317 10.2737C4.19864 10.281 4.41788 10.199 4.5833 10.0455C4.74873 9.892 4.84698 9.6794 4.85676 9.45383C4.86268 9.33968 4.84578 9.22549 4.80703 9.11796C4.76829 9.01044 4.70849 8.91173 4.63113 8.82764C4.55377 8.74355 4.46042 8.67577 4.35654 8.62826C4.25266 8.58075 4.14036 8.55448 4.02621 8.55098C3.91205 8.54749 3.79835 8.56684 3.69177 8.6079C3.58518 8.64896 3.48786 8.71091 3.40551 8.79011C3.32316 8.86931 3.25744 8.96417 3.2122 9.06912C3.16696 9.17408 3.14311 9.28702 3.14205 9.40132C3.13709 9.6272 3.22177 9.84585 3.37755 10.0094C3.53333 10.1729 3.7475 10.268 3.97317 10.2737ZM3.98987 13.8487C4.15885 13.8502 4.32445 13.8014 4.4657 13.7085C4.60694 13.6157 4.71748 13.483 4.78332 13.3272C4.84916 13.1714 4.86734 12.9996 4.83554 12.8335C4.80375 12.6674 4.72341 12.5144 4.60472 12.3941C4.48603 12.2737 4.33431 12.1912 4.16878 12.1572C4.00324 12.1232 3.83135 12.1391 3.67485 12.2029C3.51836 12.2667 3.3843 12.3756 3.28966 12.5157C3.19503 12.6558 3.14407 12.8209 3.14324 12.9901C3.14322 13.216 3.23223 13.4329 3.39094 13.5937C3.54965 13.7544 3.76528 13.8461 3.99106 13.8487H3.98987ZM4.00298 4.85245C3.83441 4.8528 3.66972 4.90316 3.52974 4.99717C3.38975 5.09117 3.28075 5.2246 3.21651 5.38059C3.15228 5.53658 3.13568 5.70813 3.16883 5.87356C3.20198 6.03899 3.28338 6.19087 3.40274 6.31C3.52211 6.42914 3.67408 6.51018 3.83946 6.5429C4.00484 6.57561 4.17619 6.55852 4.33187 6.49379C4.48754 6.42906 4.62055 6.3196 4.71409 6.17923C4.80762 6.03886 4.85747 5.87389 4.85735 5.70517C4.85728 5.59311 4.83515 5.48217 4.79223 5.37867C4.74931 5.27517 4.68644 5.18114 4.60722 5.10196C4.52799 5.02277 4.43396 4.95998 4.33049 4.91717C4.22702 4.87436 4.11614 4.85237 4.00418 4.85245H4.00298Z" fill="#121C2A"/>
<path d="M19.9998 15.3628C19.9981 15.9746 19.8758 16.58 19.6399 17.1444C19.404 17.7088 19.0591 18.2211 18.625 18.6519C18.191 19.0826 17.6763 19.4235 17.1104 19.6548C16.5445 19.8861 15.9386 20.0034 15.3273 20C12.7552 19.988 10.6959 17.8816 10.715 15.2804C10.7341 12.7503 12.8476 10.6922 15.4096 10.7101C17.9381 10.7274 20.0117 12.8291 19.9998 15.3628ZM14.8724 15.3162C14.7227 15.1569 14.5922 15.0053 14.4485 14.8675C14.145 14.5763 13.7086 14.5787 13.4289 14.8645C13.3632 14.9308 13.3113 15.0095 13.2761 15.0959C13.241 15.1824 13.2233 15.275 13.224 15.3684C13.2248 15.4618 13.2441 15.5541 13.2807 15.64C13.3173 15.7258 13.3705 15.8036 13.4373 15.8688C13.7418 16.1851 14.0518 16.4958 14.3674 16.8009C14.6726 17.0993 15.0828 17.1082 15.3869 16.8116C16.029 16.1815 16.6628 15.5424 17.2948 14.9021C17.3844 14.8166 17.4486 14.708 17.4801 14.5882C17.5117 14.4684 17.5095 14.3422 17.4737 14.2236C17.3258 13.6806 16.6825 13.5075 16.2693 13.9115C15.8072 14.3627 15.3577 14.8269 14.8712 15.3174L14.8724 15.3162Z" fill="#121C2A"/>
</g>
<defs>
<clipPath id="clip0_314_4421">
<rect width="20" height="20" fill="white"/>
</clipPath>
</defs>
</svg>
