<svg width="21" height="20" viewBox="0 0 21 20" fill="none" xmlns="http://www.w3.org/2000/svg">
<g clip-path="url(#clip0_314_4393)">
<path d="M19.0644 9.86398H18.7738C17.5784 9.86398 16.3836 9.85552 15.1889 9.86398C13.6641 9.8785 12.5257 10.7797 12.2126 12.198C11.8318 13.923 13.041 15.5766 14.852 15.694C16.1425 15.7774 17.4425 15.7297 18.7387 15.7399C18.8383 15.7399 18.9372 15.7399 19.0518 15.7399C19.0562 15.8385 19.0625 15.9117 19.0625 15.9855C19.0625 16.6792 19.0625 17.3766 19.0625 18.0673C19.0568 19.2274 18.2628 19.9949 17.0587 19.9949C12.0366 19.9949 7.01453 19.9949 1.99247 19.9949C0.790179 19.9949 -0.00195312 19.2238 -0.00195312 18.0637C-0.00195312 14.6012 -0.00195312 11.1386 -0.00195312 7.6757C-0.00195312 6.50051 0.786424 5.74023 2.01 5.74023H17.0524C18.2697 5.74023 19.0562 6.50111 19.0612 7.67993C19.0656 8.4015 19.0644 9.11701 19.0644 9.86398Z" fill="#121C2A"/>
<path d="M17.5301 10.5888C18.3266 10.5888 19.1231 10.5888 19.9197 10.5888C20.5834 10.5888 20.9961 10.994 20.998 11.6381C20.998 12.4147 20.998 13.1915 20.998 13.9686C20.998 14.6091 20.5822 15.0155 19.9159 15.0173C18.3542 15.021 16.7931 15.0246 15.2314 15.0173C14.0241 15.0107 13.0791 14.2359 12.9007 13.1278C12.8203 12.6159 12.9299 12.093 13.2101 11.6515C13.4902 11.21 13.9229 10.8784 14.4317 10.7152C14.692 10.6374 14.9627 10.5966 15.2351 10.5942C15.9997 10.5785 16.7655 10.5888 17.5301 10.5888ZM16.1782 12.5393C16.0873 12.5487 16.0031 12.5898 15.9413 12.6548C15.8795 12.7198 15.8444 12.8043 15.8425 12.8926C15.8405 12.9808 15.872 13.0667 15.9309 13.1341C15.9898 13.2016 16.0721 13.246 16.1625 13.2591C16.2534 13.2497 16.3376 13.2087 16.3994 13.1437C16.4612 13.0786 16.4963 12.9941 16.4982 12.9059C16.5001 12.8176 16.4687 12.7317 16.4098 12.6643C16.3509 12.5968 16.2685 12.5524 16.1782 12.5393Z" fill="#121C2A"/>
<path d="M16.6423 5.01034H7.74414C7.932 4.89542 8.06976 4.81438 8.20502 4.73393C9.70412 3.83878 11.2036 2.94403 12.7036 2.04969C13.4456 1.60816 14.4795 1.74364 14.9779 2.43194C15.5703 3.24967 16.0769 4.12547 16.6423 5.01034Z" fill="#121C2A"/>
<path d="M4.29688 5.02201C4.38266 4.93431 4.43213 4.87988 4.48473 4.83028C6.01264 3.4053 7.54098 1.98112 9.06972 0.557743C9.87375 -0.18983 10.8769 -0.18499 11.6697 0.566817C11.9308 0.815403 12.1857 1.06943 12.4599 1.33677L12.0898 1.55753C10.2263 2.67204 8.36191 3.78553 6.49669 4.89802C6.36504 4.97281 6.21603 5.01441 6.06337 5.01899C5.49103 5.02988 4.91681 5.02201 4.29688 5.02201Z" fill="#121C2A"/>
</g>
<defs>
<clipPath id="clip0_314_4393">
<rect width="21" height="20" fill="white"/>
</clipPath>
</defs>
</svg>
