<svg width="22" height="22" viewBox="0 0 22 22" fill="none" xmlns="http://www.w3.org/2000/svg">
<g clip-path="url(#clip0_311_2352)">
<path d="M13.6178 0C14.0551 0.0964434 14.5052 0.155573 14.9274 0.296219C16.0755 0.678571 17.0639 1.42298 17.74 2.41445C18.4161 3.40592 18.7421 4.58926 18.6678 5.78167C18.5936 6.97408 18.1231 8.1092 17.329 9.01166C16.535 9.91412 15.4615 10.5337 14.2746 10.7747C11.1476 11.4234 8.05955 9.24766 7.68337 6.1299C7.32466 3.15737 9.3686 0.504031 12.3635 0.0533879C12.4625 0.0384621 12.5603 0.0177961 12.6587 0H13.6178ZM11.1383 7.00018C11.1319 7.68906 11.6146 8.35269 12.3029 8.58289C12.4328 8.62594 12.5015 8.66613 12.512 8.82227C12.5176 8.98917 12.59 9.14707 12.7135 9.26143C12.8369 9.3758 13.0012 9.43731 13.1706 9.43251C13.5199 9.42505 13.7832 9.17188 13.8035 8.79759C13.8105 8.67187 13.8571 8.62537 13.9701 8.5938C14.3001 8.49812 14.5909 8.302 14.801 8.03351C15.4282 7.25163 15.2669 6.17754 14.4202 5.55525C13.8332 5.12241 13.241 4.69415 12.6523 4.26532C12.4863 4.1442 12.3984 3.98747 12.4694 3.78081C12.5405 3.57415 12.7024 3.49665 12.9073 3.49378C13.0599 3.49378 13.2125 3.49033 13.365 3.49378C13.6976 3.50009 13.8309 3.62294 13.874 3.95303C13.9212 4.32273 14.2176 4.57819 14.5681 4.55063C14.6553 4.54341 14.7401 4.51929 14.8177 4.47965C14.8954 4.44001 14.9643 4.38563 15.0206 4.31965C15.0769 4.25366 15.1194 4.17736 15.1457 4.09514C15.1719 4.01292 15.1815 3.92638 15.1737 3.84051C15.1277 3.19067 14.8243 2.68778 14.2275 2.40132C13.9788 2.28192 13.7925 2.19811 13.7535 1.87605C13.7185 1.58902 13.3878 1.42713 13.0809 1.45813C12.774 1.48913 12.5521 1.7222 12.5073 2.04311C12.4945 2.13496 12.5283 2.2337 12.3827 2.27905C11.6792 2.49777 11.2518 2.97482 11.1563 3.69298C11.0626 4.39506 11.3636 4.94043 11.9419 5.35204C12.5201 5.76364 13.0867 6.18443 13.658 6.60293C13.8222 6.72348 13.9142 6.87733 13.8495 7.08572C13.7849 7.29411 13.6166 7.38653 13.4023 7.38825C13.2567 7.38825 13.1112 7.38825 12.9662 7.38825C12.6208 7.38825 12.4881 7.26942 12.4421 6.92383C12.4267 6.75739 12.3462 6.60337 12.2177 6.49432C12.0893 6.38527 11.9228 6.32972 11.7536 6.33941C11.5843 6.34909 11.4255 6.42326 11.3107 6.54624C11.1959 6.66922 11.134 6.83138 11.1383 6.99846V7.00018Z" fill="white"/>
<path d="M11.2276 18.6526C10.3628 18.6526 9.49865 18.6526 8.6339 18.656C8.57786 18.6613 8.52155 18.6492 8.47281 18.6214C8.42407 18.5936 8.38532 18.5515 8.36197 18.501C7.53507 17.0804 6.7041 15.6617 5.86906 14.2449C5.83608 14.1992 5.81836 14.1445 5.81836 14.0885C5.81836 14.0324 5.83608 13.9777 5.86906 13.932C6.63248 12.68 7.7581 11.9475 9.2104 11.7351C10.569 11.5364 11.7429 11.9601 12.7387 12.8861C12.8148 12.9462 12.9096 12.9788 13.0071 12.9785C13.7915 12.986 14.5794 12.9785 15.3609 12.9842C15.9746 12.99 16.3886 13.5112 16.2343 14.0698C16.1289 14.4498 15.7894 14.6927 15.348 14.6938C14.2579 14.6938 13.1684 14.6938 12.0789 14.6938C11.5851 14.6938 11.2637 15.1531 11.4506 15.5802C11.4958 15.6991 11.5773 15.8012 11.6839 15.8725C11.7905 15.9437 11.9169 15.9806 12.0457 15.978C13.1352 15.9832 14.2253 15.9895 15.3143 15.9734C15.797 15.9659 16.2308 15.7868 16.6245 15.505C17.9223 14.575 19.2228 13.6486 20.526 12.7259C20.8585 12.4894 21.2137 12.4601 21.5666 12.6685C21.9195 12.8769 22.0441 13.1943 21.9905 13.587C21.9742 13.7046 21.9329 13.8175 21.8694 13.9184C21.8059 14.0193 21.7216 14.1059 21.6219 14.1726C19.9979 15.3299 18.3813 16.4975 16.745 17.6371C15.7324 18.3426 14.5904 18.6704 13.3437 18.652C12.6368 18.6434 11.9322 18.6526 11.2276 18.6526Z" fill="white"/>
<path d="M7.43013 19.5755C7.43013 19.9268 7.26883 20.0956 7.03997 20.2247C6.14709 20.7307 5.2542 21.238 4.36131 21.7466C4.26697 21.8 4.17438 21.8568 4.0783 21.9068C3.72891 22.0887 3.4063 22.0061 3.20133 21.6662C2.92356 21.207 2.65569 20.738 2.38608 20.273L0.154638 16.464C-0.117305 15.9996 -0.0357784 15.7068 0.440558 15.4353C1.38275 14.8995 2.32533 14.3637 3.26829 13.8279C3.70911 13.5776 4.01716 13.6557 4.2693 14.0845C5.27866 15.8067 6.28645 17.5289 7.2927 19.2511C7.3469 19.3556 7.39285 19.464 7.43013 19.5755Z" fill="white"/>
</g>
<defs>
<clipPath id="clip0_311_2352">
<rect width="22" height="22" fill="white"/>
</clipPath>
</defs>
</svg>
