<svg width="19" height="22" viewBox="0 0 19 22" fill="none" xmlns="http://www.w3.org/2000/svg">
<g clip-path="url(#clip0_311_2391)">
<path d="M15.0161 20.1217C14.2009 20.672 13.4123 21.2077 12.6203 21.742C12.0843 22.1047 11.7807 22.088 11.2875 21.6779C10.7027 21.1923 10.1151 20.7098 9.50985 20.2101C9.44192 20.2594 9.37875 20.3049 9.31762 20.3555C8.76197 20.8121 8.20677 21.2696 7.65203 21.7279C7.23224 22.0726 6.89396 22.088 6.43885 21.7811C5.68078 21.2685 4.92203 20.7598 4.17075 20.2395C4.03489 20.1428 3.94115 20.1434 3.79851 20.2395C2.999 20.7649 2.18862 21.2743 1.38844 21.7978C1.0848 21.9957 0.777091 22.0713 0.437453 21.9041C0.0978158 21.7369 0 21.4428 0 21.0994C0 14.6974 0 8.29546 0 1.89351C0 0.754328 0.801544 0.00405868 2.01201 0.00341797C7.00378 0.00341797 11.9955 0.00341797 16.9873 0.00341797C18.1978 0.00341797 18.9946 0.754328 18.9952 1.89735C18.998 8.29931 18.998 14.7013 18.9952 21.1032C18.9952 21.4473 18.8954 21.7394 18.5537 21.906C18.212 22.0726 17.9064 21.9938 17.6027 21.7952C16.753 21.2333 15.8896 20.6836 15.0161 20.1217ZM9.49898 9.71399C10.1262 9.71399 10.7529 9.71399 11.3792 9.71399C12.1943 9.71399 13.0061 9.71912 13.8192 9.71399C14.3171 9.70951 14.6588 9.37698 14.6479 8.92912C14.637 8.48127 14.2736 8.18206 13.7193 8.18206C10.9071 8.18206 8.09492 8.18206 5.28272 8.18206C5.20665 8.18065 5.13058 8.18472 5.05517 8.19423C4.94967 8.20615 4.84774 8.23776 4.75533 8.28723C4.66292 8.33669 4.58188 8.40302 4.51694 8.48235C4.45201 8.56167 4.40447 8.6524 4.3771 8.74924C4.34973 8.84608 4.34309 8.94709 4.35755 9.04638C4.39831 9.44361 4.74474 9.71399 5.23042 9.71527C6.65418 9.71656 8.07703 9.71613 9.49898 9.71399ZM9.49898 5.62499C10.9302 5.62499 12.3621 5.62499 13.7934 5.62499C14.3368 5.62499 14.6941 5.25082 14.6418 4.7626C14.599 4.36792 14.2444 4.09242 13.7682 4.09178C11.633 4.09178 9.4983 4.09178 7.36402 4.09178C6.63516 4.09178 5.90698 4.09178 5.17811 4.09178C4.99897 4.08782 4.82344 4.13966 4.67867 4.23926C4.53391 4.33886 4.42797 4.48068 4.37725 4.64279C4.22509 5.14702 4.61975 5.62179 5.20461 5.62307C6.6372 5.62755 8.06843 5.62499 9.50034 5.62499H9.49898ZM7.33617 12.2807C6.64195 12.2807 5.94841 12.2755 5.25419 12.2845C5.09473 12.2825 4.93647 12.3108 4.78889 12.3678C4.44925 12.5132 4.28079 12.8849 4.36978 13.2334C4.45876 13.5819 4.79228 13.8132 5.2277 13.8139C6.62338 13.8177 8.01952 13.8177 9.41611 13.8139C9.9507 13.8139 10.3189 13.4846 10.3121 13.0329C10.306 12.5908 9.94323 12.2832 9.41747 12.2807C8.72461 12.2787 8.03107 12.2807 7.33753 12.2807H7.33617Z" fill="white"/>
</g>
<defs>
<clipPath id="clip0_311_2391">
<rect width="19" height="22" fill="white"/>
</clipPath>
</defs>
</svg>
