<svg width="17" height="20" viewBox="0 0 17 20" fill="none" xmlns="http://www.w3.org/2000/svg">
<g clip-path="url(#clip0_314_4388)">
<path d="M13.4354 18.2922C12.7061 18.7926 12.0005 19.2795 11.2918 19.7653C10.8123 20.095 10.5406 20.0798 10.0994 19.707C9.57606 19.2655 9.05034 18.8269 8.50881 18.3726C8.44804 18.4175 8.39151 18.4588 8.33681 18.5048C7.83966 18.9199 7.3429 19.3358 6.84656 19.7525C6.47095 20.0658 6.16828 20.0798 5.76108 19.8008C5.0828 19.3348 4.40392 18.8724 3.73172 18.3994C3.61017 18.3115 3.5263 18.312 3.39866 18.3994C2.68332 18.877 1.95824 19.3401 1.24229 19.816C0.970613 19.9959 0.695292 20.0647 0.391406 19.9126C0.0875194 19.7606 0 19.4933 0 19.1811C0 13.3611 0 7.54115 0 1.72119C0 0.685575 0.717171 0.00351215 1.80022 0.00292969C6.26654 0.00292969 10.7329 0.00292969 15.1992 0.00292969C16.2822 0.00292969 16.9951 0.685575 16.9957 1.72469C16.9982 7.54465 16.9982 13.3646 16.9957 19.1846C16.9957 19.4974 16.9064 19.763 16.6007 19.9144C16.295 20.0658 16.0215 19.9942 15.7498 19.8136C14.9895 19.3028 14.217 18.8031 13.4354 18.2922ZM8.49909 8.83072C9.06027 8.83072 9.62104 8.83072 10.1814 8.83072C10.9107 8.83072 11.637 8.83539 12.3645 8.83072C12.81 8.82665 13.1157 8.52435 13.106 8.11721C13.0963 7.71007 12.7711 7.43806 12.2752 7.43806C9.759 7.43806 7.24282 7.43806 4.72665 7.43806C4.65858 7.43677 4.59052 7.44047 4.52304 7.44912C4.42865 7.45996 4.33745 7.48869 4.25477 7.53366C4.17209 7.57863 4.09958 7.63894 4.04148 7.71105C3.98337 7.78316 3.94084 7.86564 3.91635 7.95368C3.89187 8.04171 3.88592 8.13354 3.89886 8.2238C3.93533 8.58493 4.24529 8.83073 4.67985 8.83189C5.95374 8.83306 7.22682 8.83267 8.49909 8.83072ZM8.49909 5.11345C9.77967 5.11345 11.0609 5.11345 12.3414 5.11345C12.8276 5.11345 13.1473 4.77329 13.1005 4.32946C13.0622 3.97066 12.745 3.7202 12.3189 3.71962C10.4085 3.71962 8.49848 3.71962 6.58886 3.71962C5.93672 3.71962 5.28519 3.71962 4.63305 3.71962C4.47277 3.71603 4.31571 3.76315 4.18618 3.85369C4.05665 3.94424 3.96187 4.07317 3.91649 4.22054C3.78034 4.67894 4.13346 5.11054 4.65675 5.1117C5.93854 5.11578 7.21912 5.11345 8.50031 5.11345H8.49909ZM6.56394 11.1641C5.9428 11.1641 5.32226 11.1594 4.70112 11.1676C4.55844 11.1657 4.41684 11.1914 4.2848 11.2433C3.98091 11.3755 3.83018 11.7133 3.9098 12.0302C3.98942 12.347 4.28783 12.5573 4.67742 12.5579C5.92619 12.5614 7.17536 12.5614 8.42494 12.5579C8.90326 12.5579 9.23267 12.2585 9.22659 11.8479C9.22112 11.446 8.89657 11.1664 8.42616 11.1641C7.80623 11.1623 7.18569 11.1641 6.56516 11.1641H6.56394Z" fill="#121C2A"/>
</g>
<defs>
<clipPath id="clip0_314_4388">
<rect width="17" height="20" fill="white"/>
</clipPath>
</defs>
</svg>
