<svg width="20" height="20" viewBox="0 0 20 20" fill="none" xmlns="http://www.w3.org/2000/svg">
<g clip-path="url(#clip0_314_4390)">
<path d="M9.99406 13.7485L7.13618 11.1202C6.77103 10.7842 6.39741 10.4573 6.04205 10.1108C4.33371 8.44496 3.74818 6.43393 4.43087 4.15668C5.11355 1.87943 6.713 0.494161 9.06034 0.0863436C12.3655 -0.488515 15.4562 1.87291 15.7966 5.21048C15.9922 7.1145 15.3858 8.76208 13.9865 10.0821C12.7372 11.2605 11.4625 12.4109 10.1988 13.573C10.1375 13.6278 10.0756 13.6787 9.99406 13.7485ZM10.028 3.33452C9.37193 3.33397 8.74197 3.59157 8.27406 4.05174C7.80615 4.5119 7.53781 5.13772 7.52694 5.79414C7.51607 6.45056 7.76355 7.08494 8.21596 7.56037C8.66838 8.03579 9.28946 8.31414 9.94516 8.33534C11.3066 8.36862 12.4633 7.26719 12.492 5.91128C12.5036 5.57908 12.4486 5.24793 12.3303 4.93734C12.212 4.62675 12.0327 4.34302 11.803 4.10286C11.5734 3.86271 11.298 3.671 10.9932 3.53905C10.6883 3.40709 10.3601 3.33754 10.028 3.33452Z" fill="#121C2A"/>
<path d="M17.9047 19.5902C17.1098 19.5602 16.5034 19.2091 16.105 18.5207C16.0294 18.3902 15.9538 18.3393 15.8031 18.34C14.7212 18.3465 13.6392 18.3465 12.5573 18.34C12.4086 18.34 12.3323 18.3805 12.2645 18.5227C11.8081 19.4773 11.0439 20.0039 9.9876 20C8.94434 19.9954 8.18471 19.4688 7.73285 18.524C7.66765 18.3837 7.592 18.3393 7.44138 18.34C6.35943 18.3465 5.27749 18.3465 4.19554 18.34C4.13274 18.3343 4.06974 18.3485 4.01553 18.3808C3.96131 18.413 3.91866 18.4615 3.89364 18.5194C3.36679 19.4421 2.30397 19.8244 1.33178 19.4466C0.865744 19.2676 0.479654 18.9267 0.244077 18.4863C0.00850008 18.0459 -0.0608285 17.5353 0.0487597 17.048C0.158348 16.5606 0.439534 16.129 0.840925 15.832C1.24232 15.535 1.7371 15.3925 2.23485 15.4305C2.96709 15.4833 3.52524 15.8474 3.89038 16.4856C3.96928 16.6232 4.04817 16.6813 4.21053 16.6774C5.28379 16.6696 6.35748 16.6696 7.43161 16.6774C7.59657 16.6774 7.66764 16.6226 7.73741 16.4764C8.19384 15.5316 8.95151 15.0122 9.99738 15.0122C11.0433 15.0122 11.8042 15.5303 12.2586 16.4751C12.3278 16.6187 12.3962 16.6794 12.5638 16.6781C13.6371 16.6689 14.7108 16.6689 15.7849 16.6781C15.9459 16.6781 16.0268 16.6272 16.1057 16.4875C16.333 16.0735 16.6957 15.7502 17.133 15.572C17.5702 15.3938 18.0554 15.3715 18.5071 15.5088C19.42 15.7822 20.0466 16.6539 19.9977 17.5896C19.9768 18.0656 19.794 18.5201 19.4794 18.8777C19.1649 19.2353 18.7376 19.4745 18.2685 19.5556C18.1492 19.5791 18.0259 19.5798 17.9047 19.5902ZM10.0026 16.6768C9.89289 16.6752 9.78398 16.6956 9.68227 16.7368C9.58055 16.7779 9.4881 16.839 9.41033 16.9165C9.33257 16.9939 9.27106 17.0862 9.22944 17.1878C9.18783 17.2894 9.16693 17.3983 9.16799 17.508C9.16747 17.6172 9.18845 17.7254 9.22972 17.8265C9.27099 17.9275 9.33175 18.0195 9.40852 18.097C9.4853 18.1746 9.57658 18.2362 9.67717 18.2785C9.77776 18.3207 9.88568 18.3427 9.99477 18.3433C10.1039 18.3438 10.212 18.3228 10.313 18.2815C10.4139 18.2402 10.5058 18.1794 10.5833 18.1025C10.6608 18.0257 10.7224 17.9344 10.7646 17.8337C10.8069 17.733 10.8289 17.625 10.8294 17.5159C10.8315 17.4061 10.8116 17.297 10.7709 17.195C10.7303 17.093 10.6696 17.0002 10.5926 16.922C10.5156 16.8439 10.4237 16.7819 10.3224 16.7398C10.221 16.6976 10.1123 16.6762 10.0026 16.6768Z" fill="#121C2A"/>
</g>
<defs>
<clipPath id="clip0_314_4390">
<rect width="20" height="20" fill="white"/>
</clipPath>
</defs>
</svg>
