<svg width="12" height="12" viewBox="0 0 12 12" fill="none" xmlns="http://www.w3.org/2000/svg">
<g clip-path="url(#clip0_462_7817)">
<path d="M11.448 7.3056C11.324 8.9766 11.0195 10.3771 11.0065 10.4361C10.944 10.7216 10.7205 10.9451 10.4345 11.0081C10.343 11.0281 8.16605 11.5006 5.99855 11.5006C3.83105 11.5006 1.65455 11.0281 1.56255 11.0081C1.27705 10.9456 1.05355 10.7221 0.990547 10.4361C0.970547 10.3446 0.498047 8.1676 0.498047 6.0001C0.498047 3.8326 0.971547 1.6561 0.991547 1.5641C1.05405 1.2786 1.27755 1.0551 1.56355 0.992102C1.62255 0.979602 3.02255 0.674602 4.69405 0.550602C5.10955 0.522602 5.46705 0.830102 5.49755 1.2431C5.52805 1.6561 5.21805 2.0156 4.80505 2.0466C3.80255 2.1206 2.89255 2.2671 2.36405 2.3636C2.23005 3.0991 1.99955 4.5726 1.99955 5.9996C1.99955 7.4266 2.23005 8.8996 2.36405 9.6351C3.09955 9.7691 4.57305 9.9996 5.99955 9.9996C7.42605 9.9996 8.89955 9.7691 9.63505 9.6351C9.73155 9.1051 9.87805 8.1936 9.95205 7.1941C9.98255 6.7811 10.3455 6.4726 10.7555 6.5016C11.1685 6.5326 11.4785 6.8921 11.448 7.3051V7.3056ZM7.40255 2.1621C7.91705 2.0546 8.42705 2.0071 8.93105 2.0076L4.71855 6.2196C4.42555 6.5121 4.42555 6.9876 4.71855 7.2801C4.86505 7.4266 5.05705 7.4996 5.24905 7.4996C5.44105 7.4996 5.63305 7.4266 5.77955 7.2801L9.99155 3.0681C9.99155 3.5721 9.94455 4.0826 9.83705 4.5966C9.75255 5.0021 10.012 5.3991 10.4175 5.4841C10.813 5.5701 11.222 5.3116 11.305 4.9036C11.563 3.6696 11.5625 2.4461 11.3035 1.2671C11.241 0.981602 11.0175 0.758102 10.732 0.695602C9.55305 0.436602 8.32955 0.436102 7.09555 0.694102C6.69005 0.779102 6.43005 1.1761 6.51505 1.5816C6.60005 1.9871 6.99755 2.2481 7.40255 2.1621Z" fill="black"/>
</g>
<defs>
<clipPath id="clip0_462_7817">
<rect width="12" height="12" fill="white"/>
</clipPath>
</defs>
</svg>
