<svg width="14" height="10" viewBox="0 0 14 10" fill="none" xmlns="http://www.w3.org/2000/svg">
<path fill-rule="evenodd" clip-rule="evenodd" d="M13.4999 4.99993L13.9149 4.79193V4.78993L13.9119 4.78693L13.9059 4.77493L13.8849 4.73493L13.8049 4.59093C13.7073 4.42254 13.6035 4.25776 13.4939 4.09693C13.128 3.55988 12.7074 3.06222 12.2389 2.61193C11.1129 1.53193 9.37989 0.429932 6.99989 0.429932C4.62189 0.429932 2.88789 1.53093 1.76189 2.61193C1.29335 3.06222 0.872766 3.55988 0.506888 4.09693C0.358426 4.31598 0.220923 4.54226 0.0948876 4.77493L0.0888876 4.78693L0.0868876 4.78993V4.79093C0.0868876 4.79093 0.0858876 4.79193 0.500888 4.99993L0.0858876 4.79093C0.0538019 4.85575 0.0371094 4.9271 0.0371094 4.99943C0.0371094 5.07176 0.0538019 5.14311 0.0858876 5.20793L0.0848876 5.20993L0.0878876 5.21293L0.0938876 5.22493C0.125069 5.28741 0.158423 5.34878 0.193888 5.40893C0.624486 6.13634 1.15124 6.80235 1.75989 7.38893C2.88689 8.46893 4.61989 9.56893 6.99989 9.56893C9.37889 9.56893 11.1129 8.46893 12.2399 7.38793C12.7076 6.93711 13.1278 6.4395 13.4939 5.90293C13.6341 5.69648 13.7646 5.48358 13.8849 5.26493L13.9059 5.22493L13.9119 5.21293L13.9139 5.20993V5.20893C13.9139 5.20893 13.9149 5.20793 13.4999 4.99993ZM13.4999 4.99993L13.9149 5.20893C13.947 5.14411 13.9637 5.07276 13.9637 5.00043C13.9637 4.9281 13.947 4.85675 13.9149 4.79193L13.4999 4.99993ZM6.93989 3.46393C6.53252 3.46393 6.14183 3.62576 5.85377 3.91382C5.56572 4.20187 5.40389 4.59256 5.40389 4.99993C5.40389 5.4073 5.56572 5.79799 5.85377 6.08605C6.14183 6.3741 6.53252 6.53593 6.93989 6.53593C7.34726 6.53593 7.73795 6.3741 8.026 6.08605C8.31406 5.79799 8.47589 5.4073 8.47589 4.99993C8.47589 4.59256 8.31406 4.20187 8.026 3.91382C7.73795 3.62576 7.34726 3.46393 6.93989 3.46393ZM4.47789 4.99993C4.47789 4.34644 4.73749 3.71971 5.19958 3.25762C5.66167 2.79553 6.28839 2.53593 6.94189 2.53593C7.59538 2.53593 8.22211 2.79553 8.6842 3.25762C9.14629 3.71971 9.40589 4.34644 9.40589 4.99993C9.40589 5.65342 9.14629 6.28015 8.6842 6.74224C8.22211 7.20433 7.59538 7.46393 6.94189 7.46393C6.28839 7.46393 5.66167 7.20433 5.19958 6.74224C4.73749 6.28015 4.47789 5.65342 4.47789 4.99993Z" fill="black"/>
</svg>
