<svg width="28" height="30" viewBox="0 0 28 30" fill="none" xmlns="http://www.w3.org/2000/svg">
<path d="M22.2523 0C22.7323 0.11025 23.2242 0.186048 23.6904 0.336493C26.4903 1.23974 28.2683 3.91733 27.9678 6.74882C27.6709 9.54757 25.4177 11.7962 22.5212 12.1855C19.0774 12.6478 15.9263 10.4043 15.3497 7.07899C14.7881 3.83752 17.1003 0.69653 20.4827 0.105082C20.6562 0.0746487 20.8279 0.0350275 21.0002 0C21.4176 0 21.8349 0 22.2523 0Z" fill="#FF0000"/>
<path d="M12.2346 29.4C11.6354 29.2094 10.9974 29.0905 10.4453 28.8132C9.16103 28.1678 8.39368 27.1089 8.05859 25.7354H17.4397C17.2787 26.1402 17.1666 26.5341 16.9735 26.8861C16.2151 28.2711 15.025 29.0963 13.4151 29.3501C13.3579 29.3593 13.3037 29.3834 13.2482 29.4006H12.2346V29.4Z" fill="white"/>
<path d="M13.5548 2.50147C12.3063 5.35535 12.4124 8.12653 14.1499 10.7341C15.8801 13.3313 18.435 14.5963 21.5998 14.7174C21.7083 15.3221 21.7781 15.9308 21.9313 16.5188C22.3534 18.1404 23.2239 19.511 24.5404 20.6066C25.1581 21.1206 25.523 21.7396 25.4407 22.5378C25.3238 23.6661 24.408 24.435 23.1446 24.5016C23.0552 24.5062 22.9657 24.505 22.8763 24.505C16.1091 24.505 9.34183 24.5085 2.57519 24.497C2.18644 24.4964 1.77266 24.439 1.41432 24.3023C-0.145422 23.7092 -0.491236 21.8389 0.760256 20.7634C1.79233 19.8762 2.6211 18.857 3.1583 17.6264C3.57865 16.664 3.80879 15.6597 3.82131 14.6158C3.83503 13.4392 3.8231 12.2621 3.82728 11.0849C3.84159 7.11418 6.46978 3.79978 10.4425 2.73977C11.4102 2.48137 12.3969 2.41706 13.395 2.47563C13.4415 2.4785 13.4874 2.49056 13.5548 2.50147Z" fill="white"/>
</svg>
