<svg width="32" height="32" viewBox="0 0 32 32" fill="none" xmlns="http://www.w3.org/2000/svg">
<g clip-path="url(#clip0_305_2101)">
<path d="M19.9106 6.09787C20.6517 6.11121 21.3967 6.07975 22.1332 6.14744C23.9828 6.3181 25.3179 7.66426 25.5577 9.55862C25.7975 11.453 26.0298 13.354 26.262 15.2522C26.2649 15.3096 26.2649 15.3672 26.262 15.4247C23.827 14.9833 21.5676 15.4047 19.5055 16.7594C17.9108 17.8082 16.7674 19.2468 16.0564 21.0277C14.6288 24.5838 15.5636 29.2992 19.3998 31.9801C19.2487 31.9877 19.1382 31.9972 19.0278 31.9972C13.9764 31.9972 8.9254 31.9972 3.87469 31.9972C1.41983 31.9972 -0.271189 30.0285 0.0385008 27.5574C0.549614 23.4674 1.05317 19.3768 1.54918 15.2855C1.79278 13.3168 2.00333 11.3433 2.30452 9.3832C2.60666 7.39446 4.11734 6.14172 6.10955 6.11121C6.71004 6.10359 7.31054 6.10073 7.91009 6.09596L7.90065 6.08738C7.90065 7.6185 7.88649 9.14962 7.8931 10.6798C7.88995 10.7808 7.90734 10.8814 7.94418 10.9754C7.98103 11.0693 8.03656 11.1547 8.10733 11.2262C8.17811 11.2976 8.26264 11.3537 8.3557 11.3909C8.44877 11.4281 8.54839 11.4457 8.64844 11.4425C9.08654 11.432 9.38206 11.0897 9.38301 10.573C9.38804 9.07811 9.39025 7.58259 9.38962 6.08643L9.37923 6.09691C10.9532 6.10168 12.5271 6.10931 14.1001 6.11026C15.5456 6.11026 16.9902 6.10168 18.4348 6.09691L18.4254 6.08643C18.4254 7.6061 18.4254 9.12578 18.4329 10.6445C18.4329 11.1031 18.7521 11.432 19.1656 11.4425C19.2657 11.4459 19.3655 11.4286 19.4587 11.3915C19.5519 11.3544 19.6365 11.2983 19.7073 11.2268C19.7782 11.1553 19.8337 11.0698 19.8704 10.9757C19.9072 10.8816 19.9244 10.7809 19.9209 10.6798C19.9276 9.14867 19.9209 7.61754 19.9134 6.08643L19.9106 6.09787Z" fill="white"/>
<path d="M24.5052 16.7832C25.502 16.7887 26.4877 16.9939 27.4054 17.387C28.323 17.78 29.1543 18.353 29.851 19.0728C30.5477 19.7926 31.096 20.6449 31.4641 21.5802C31.8322 22.5156 32.0127 23.5154 31.9954 24.5217C31.9519 28.6984 28.5076 32.0467 24.3079 31.9962C20.1847 31.9466 16.8819 28.4811 16.9282 24.2538C16.9764 20.1124 20.3981 16.7374 24.5052 16.7832ZM25.2152 25.149C25.7043 25.149 26.1396 25.149 26.5739 25.149C27.13 25.149 27.4822 24.8411 27.4737 24.3739C27.4652 23.9068 27.13 23.6389 26.5805 23.6341C26.1368 23.6341 25.693 23.6341 25.2143 23.6341C25.2143 23.1098 25.2219 22.6255 25.2143 22.1411C25.2067 21.7197 24.948 21.4137 24.5808 21.3632C24.103 21.2974 23.731 21.6092 23.7206 22.1163C23.7102 22.6235 23.7206 23.105 23.7206 23.6417C23.1749 23.6417 22.682 23.6313 22.192 23.6417C22.0135 23.6376 21.84 23.7012 21.7057 23.82C21.5714 23.9388 21.4862 24.1042 21.4669 24.2834C21.4102 24.7601 21.7284 25.1357 22.2269 25.1481C22.7255 25.1605 23.2041 25.1481 23.663 25.1481C23.6961 25.212 23.7065 25.2224 23.7065 25.232C23.7112 25.6839 23.7112 26.1348 23.7197 26.5858C23.7282 27.0958 24.0369 27.4362 24.475 27.4305C24.9131 27.4247 25.2134 27.0806 25.219 26.5724C25.2181 26.1091 25.2152 25.6476 25.2152 25.149Z" fill="white"/>
<path d="M7.90592 6.09784C7.87382 4.25687 8.5829 2.72957 9.94157 1.54738C11.7289 -0.0075704 13.8014 -0.407035 16.0088 0.425261C18.2588 1.27281 19.5325 2.98888 19.8941 5.38853C19.9145 5.62438 19.9192 5.86134 19.9083 6.09784L19.9177 6.08926H18.4259L18.4354 6.09974L18.4269 5.92146C18.3995 5.30036 18.2467 4.69146 17.9781 4.13205C17.7094 3.57265 17.3304 3.07453 16.8644 2.66822C16.3984 2.26191 15.8551 1.95597 15.2678 1.76914C14.6806 1.58231 14.0617 1.51853 13.4492 1.5817C11.1341 1.82767 9.47798 3.66483 9.37884 6.09974L9.38923 6.08926H7.89648L7.90592 6.09784Z" fill="white"/>
</g>
<defs>
<clipPath id="clip0_305_2101">
<rect width="32" height="32" fill="white"/>
</clipPath>
</defs>
</svg>
