<svg width="111" height="103" viewBox="0 0 111 103" fill="none" xmlns="http://www.w3.org/2000/svg">
<g clip-path="url(#clip0_350_9248)">
<path d="M111.001 66.5758L110.604 67.8154C109.599 70.9537 106.933 73.1733 103.676 73.3804C101.481 73.5204 99.2718 73.4475 97.0685 73.4621C96.8808 73.4476 96.6948 73.4164 96.5126 73.3688V40.4102H99.6974C99.2255 38.0593 98.9823 35.8105 98.3163 33.7018C93.6279 18.7722 83.6285 9.87339 68.3181 7.00531C66.8227 6.74625 65.3073 6.62228 63.7899 6.6349C57.7937 6.61739 51.786 6.40739 45.8072 6.75156C34.31 7.41948 25.1521 12.7016 18.3018 21.9825C14.5177 27.1013 12.3607 32.9172 11.5645 39.2464C11.5239 39.5672 11.5239 39.8968 11.4921 40.3722H14.4801V73.2812C11.7585 73.2812 9.01952 73.5729 6.37321 73.2083C2.67591 72.6833 0.058565 69.2416 0.0325073 65.4412C-0.00223627 59.7653 -0.0138175 54.0865 0.0325073 48.4106C0.0614603 45.3306 1.48015 42.9768 4.13514 41.4398C4.38948 41.317 4.60412 41.1242 4.75425 40.8836C4.90437 40.6431 4.98383 40.3647 4.98346 40.0806C6.51218 20.775 20.7107 4.66613 39.5765 0.918181C42.0195 0.429406 44.501 0.16195 46.9914 0.119011C53.2018 0.0315103 59.4412 -0.143495 65.6226 0.215258C78.5617 0.967764 89.0543 6.73406 97.08 16.9366C102.416 23.7238 105.366 31.5201 106.055 40.1681C106.084 40.5239 106.241 41.0431 106.496 41.1772C108.959 42.4431 110.259 44.5577 110.992 47.139L111.001 66.5758Z" fill="#121C2A"/>
<path d="M55.6217 30.1206H80.4315C86.2221 30.1206 89.9628 33.9123 89.9657 39.7631C89.9657 52.9349 89.9657 66.1067 89.9657 79.2785C89.9657 85.0739 86.2308 88.854 80.4952 88.8685C76.5605 88.8685 72.6229 88.889 68.6853 88.8685C68.3871 88.8497 68.089 88.9066 67.8184 89.034C67.5477 89.1614 67.3132 89.3552 67.1363 89.5977C63.9225 93.4827 60.674 97.3386 57.4341 101.197C55.4074 103.618 53.4531 103.615 51.4148 101.197C48.1721 97.3201 44.938 93.4468 41.7127 89.5773C41.5343 89.3347 41.298 89.1414 41.0257 89.0155C40.7534 88.8895 40.4538 88.835 40.155 88.8569C36.9065 88.889 33.655 88.8831 30.4065 88.8569C24.8157 88.8306 21.0576 85.0185 21.0547 79.366C21.0547 66.1223 21.0547 52.8785 21.0547 39.6348C21.0547 33.9298 24.8417 30.1118 30.4876 30.1118C38.8666 30.1138 47.2446 30.1167 55.6217 30.1206ZM55.5261 73.1272C61.8321 73.0076 67.1536 70.5021 71.763 66.3342C72.0755 66.0542 72.3298 65.7145 72.5111 65.3349C72.6925 64.9552 72.7972 64.543 72.8193 64.1222C72.8414 63.7015 72.7803 63.2805 72.6398 62.8837C72.4992 62.4868 72.2819 62.122 72.0004 61.8104C71.4499 61.1686 70.6723 60.7688 69.8334 60.6963C68.9945 60.6239 68.1607 60.8844 67.5098 61.4225C66.7078 62.0379 65.955 62.7292 65.124 63.3038C59.9675 66.8592 54.4896 67.74 48.7569 64.94C46.8981 64.03 45.2536 62.6592 43.5454 61.44C42.0485 60.3637 40.2158 60.46 39.0403 61.7725C38.7518 62.0781 38.5269 62.4388 38.3787 62.8332C38.2306 63.2276 38.1622 63.6479 38.1775 64.0694C38.1929 64.4908 38.2917 64.9049 38.4683 65.2874C38.6448 65.6698 38.8954 66.0128 39.2053 66.2963C43.8494 70.4992 49.1999 73.0193 55.5261 73.1272ZM42.173 53.0603C43.0326 53.08 43.8652 52.7571 44.4897 52.1618C45.1143 51.5665 45.4804 50.7469 45.5084 49.8811C45.51 49.0155 45.1796 48.1826 44.5861 47.5565C43.9926 46.9304 43.182 46.5595 42.3236 46.5211C41.4649 46.5131 40.6373 46.8446 40.0185 47.4445C39.3998 48.0444 39.0392 48.8648 39.0142 49.7295C39.0023 50.1577 39.0748 50.5841 39.2275 50.9839C39.3801 51.3837 39.61 51.7491 39.9038 52.0588C40.1975 52.3686 40.5493 52.6166 40.9388 52.7885C41.3283 52.9604 41.7478 53.0528 42.173 53.0603ZM67.3245 53.0603C68.1826 53.0777 69.0129 52.7537 69.6356 52.1586C70.2583 51.5636 70.6232 50.7453 70.6512 49.8811C70.6505 49.017 70.3191 48.1863 69.7259 47.5621C69.1327 46.9379 68.3233 46.5682 67.4663 46.5299C66.6094 46.5242 65.7844 46.8568 65.168 47.4565C64.5515 48.0562 64.1928 48.8753 64.1686 49.7382C64.1571 50.1657 64.2298 50.5912 64.3825 50.9902C64.5353 51.3891 64.765 51.7536 65.0585 52.0626C65.352 52.3715 65.7034 52.6188 66.0923 52.79C66.4813 52.9613 66.9001 53.0532 67.3245 53.0603Z" fill="#121C2A"/>
</g>
<defs>
<clipPath id="clip0_350_9248">
<rect width="111" height="103" fill="white"/>
</clipPath>
</defs>
</svg>
