<svg width="68" height="58" viewBox="0 0 68 58" fill="none" xmlns="http://www.w3.org/2000/svg">
<g clip-path="url(#clip0_235_6288)">
<path d="M0 36.8835C1.14352 31.5085 5.15844 28.845 9.605 26.5932C9.9543 26.4154 10.3195 26.2697 10.7777 26.0586C10.7777 27.5206 10.7977 28.8904 10.7525 30.2589C10.7525 30.43 10.4258 30.6331 10.212 30.7507C8.37914 31.7597 6.62602 32.8716 5.29789 34.5421C3.66961 36.5895 3.59656 38.8614 5.11063 40.9956C6.14656 42.455 7.5318 43.5161 9.03789 44.4315C11.742 46.0766 14.6798 47.1377 17.7677 47.9903C18.0479 46.7087 18.3321 45.4779 18.5831 44.2404C18.7598 43.365 19.1702 42.7155 20.0613 42.4536C20.9525 42.1917 21.6059 42.5325 22.2063 43.1485C24.561 45.5701 26.9251 47.9756 29.2785 50.3919C30.5323 51.6802 30.2082 53.2772 28.5321 53.9561C25.3579 55.2444 22.1744 56.5073 18.9975 57.7929C18.2139 58.1096 17.4795 58.0936 16.8207 57.535C16.162 56.9763 15.9654 56.2386 16.1752 55.37C16.4409 54.2501 16.66 53.1168 16.903 51.9688C15.5391 51.5198 14.2109 51.1122 12.9107 50.6485C10.4882 49.7811 8.17062 48.6866 6.04297 47.2192C3.05469 45.1572 0.702578 42.63 0 38.8881V36.8835Z" fill="url(#paint0_linear_235_6288)"/>
<path d="M68 39.0218C67.8406 39.6192 67.7145 40.2245 67.5179 40.8139C66.7861 43.0003 65.3544 44.6775 63.6013 46.0914C60.4045 48.6693 56.6844 50.1821 52.8142 51.3688C48.8046 52.5983 44.7007 53.3347 40.5304 53.7516C39.0469 53.9013 38.1238 52.9952 38.0428 51.8807C37.9578 50.7006 38.8277 49.8574 40.2502 49.7304C45.0726 49.3014 49.7834 48.3432 54.3283 46.6299C56.9274 45.649 59.4177 44.4503 61.5214 42.5766C62.6317 41.5877 63.5348 40.4504 63.8895 38.955C64.2148 37.5878 63.8788 36.3503 63.1431 35.205C61.876 33.2351 60.0153 31.9549 58.0072 30.8857C57.4175 30.5704 57.1824 30.2416 57.2196 29.5654C57.2834 28.4334 57.2369 27.2935 57.2369 25.9932C62.1297 28.4348 66.7569 30.9379 68.0027 36.8822L68 39.0218Z" fill="url(#paint1_linear_235_6288)"/>
<path d="M16.7915 9.62075L20.5474 7.43305C24.5867 5.08632 28.6251 2.73781 32.6626 0.387521C33.4595 -0.0815576 34.2231 -0.147043 35.0386 0.323372C40.3246 3.34365 45.6127 6.35992 50.9031 9.37218C50.9801 9.41628 51.0492 9.47241 51.2032 9.58066C50.9748 9.73033 50.7902 9.86397 50.5949 9.98158C45.2426 13.1043 39.888 16.2288 34.5313 19.3551C34.2125 19.5422 33.9655 19.6424 33.579 19.4166C28.1142 16.2181 22.6415 13.0335 17.1607 9.86263C17.0717 9.80784 16.9828 9.74369 16.7915 9.62075Z" fill="url(#paint2_linear_235_6288)"/>
<path d="M35.9922 43.0042V42.336C35.9922 36.1226 35.9922 29.9101 35.9922 23.6985C35.9922 23.3483 36.0294 23.0931 36.3906 22.8846C41.8864 19.6959 47.376 16.4961 52.8594 13.2852C52.9523 13.2317 53.0533 13.1916 53.2166 13.1128C53.2326 13.3467 53.2578 13.5324 53.2578 13.7182C53.2578 19.6875 53.2578 25.6567 53.2578 31.626C53.2578 32.5615 52.8966 33.2417 52.0877 33.7108C46.8408 36.7525 41.5955 39.7986 36.3521 42.8492C36.2804 42.8812 36.1967 42.912 35.9922 43.0042Z" fill="url(#paint3_linear_235_6288)"/>
<path d="M31.9707 43.0084C30.5629 42.1891 29.2281 41.4127 27.892 40.6376C23.9076 38.3211 19.9232 36.0096 15.9389 33.703C15.15 33.2473 14.7568 32.5964 14.7568 31.6917C14.7568 25.6333 14.7568 19.5749 14.7568 13.5166C14.7568 13.4284 14.7688 13.3402 14.7807 13.1758C14.9454 13.2367 15.1068 13.3062 15.2642 13.3843C20.6838 16.5302 26.1035 19.6761 31.5231 22.822C31.8286 22.9997 32.0238 23.1667 32.0225 23.5797C32.0065 29.9508 32.0021 36.321 32.0092 42.6903C32.0017 42.7969 31.9888 42.9031 31.9707 43.0084Z" fill="url(#paint4_linear_235_6288)"/>
</g>
<defs>
<linearGradient id="paint0_linear_235_6288" x1="0" y1="42.0295" x2="30.0405" y2="42.0295" gradientUnits="userSpaceOnUse">
<stop stop-color="#C9A227"/>
<stop offset="1" stop-color="#FFD700"/>
</linearGradient>
<linearGradient id="paint1_linear_235_6288" x1="38.0371" y1="39.8805" x2="68.0027" y2="39.8805" gradientUnits="userSpaceOnUse">
<stop stop-color="#C9A227"/>
<stop offset="1" stop-color="#FFD700"/>
</linearGradient>
<linearGradient id="paint2_linear_235_6288" x1="16.7915" y1="9.77395" x2="51.2032" y2="9.77395" gradientUnits="userSpaceOnUse">
<stop stop-color="#C9A227"/>
<stop offset="1" stop-color="#FFD700"/>
</linearGradient>
<linearGradient id="paint3_linear_235_6288" x1="35.9922" y1="28.0585" x2="53.2578" y2="28.0585" gradientUnits="userSpaceOnUse">
<stop stop-color="#C9A227"/>
<stop offset="1" stop-color="#FFD700"/>
</linearGradient>
<linearGradient id="paint4_linear_235_6288" x1="14.7568" y1="28.0921" x2="32.0225" y2="28.0921" gradientUnits="userSpaceOnUse">
<stop stop-color="#C9A227"/>
<stop offset="1" stop-color="#FFD700"/>
</linearGradient>
<clipPath id="clip0_235_6288">
<rect width="68" height="58" fill="white"/>
</clipPath>
</defs>
</svg>
