<svg width="37" height="35" viewBox="0 0 37 35" fill="none" xmlns="http://www.w3.org/2000/svg">
<g clip-path="url(#clip0_350_9244)" filter="url(#filter0_d_350_9244)">
<path d="M33.0001 17.452L32.8965 17.777C32.634 18.5997 31.9374 19.1815 31.0864 19.2358C30.513 19.2725 29.9359 19.2534 29.3602 19.2572C29.3112 19.2534 29.2626 19.2452 29.215 19.2327V10.5931H30.047C29.9237 9.97685 29.8602 9.38737 29.6862 8.83459C28.4613 4.92101 25.8489 2.58831 21.8489 1.83648C21.4582 1.76857 21.0622 1.73608 20.6658 1.73938C19.0992 1.7348 17.5296 1.67975 15.9676 1.76997C12.9638 1.94505 10.5713 3.32969 8.78154 5.76255C7.79289 7.10437 7.22935 8.62892 7.02133 10.288C7.01074 10.3721 7.01074 10.4585 7.00242 10.5832H7.78305V19.2098C7.07201 19.2098 6.35643 19.2862 5.66505 19.1907C4.69909 19.0531 4.01528 18.1509 4.00847 17.1546C3.99939 15.6668 3.99637 14.1782 4.00847 12.6903C4.01604 11.8829 4.38668 11.2659 5.08033 10.863C5.14678 10.8308 5.20286 10.7803 5.24208 10.7172C5.2813 10.6542 5.30206 10.5812 5.30196 10.5067C5.70136 5.44601 9.41089 1.2233 14.3398 0.240828C14.978 0.112703 15.6264 0.0425929 16.277 0.0313369C17.8995 0.00839982 19.5296 -0.0374754 21.1446 0.0565667C24.5251 0.253825 27.2664 1.76538 29.3632 4.43984C30.7573 6.21899 31.5281 8.26269 31.7082 10.5296C31.7157 10.6229 31.7566 10.759 31.8231 10.7942C32.4669 11.126 32.8065 11.6803 32.9979 12.357L33.0001 17.452Z" fill="#121C2A"/>
<path d="M18.5317 7.8956H25.0136C26.5264 7.8956 27.5038 8.88954 27.5045 10.4233C27.5045 13.8761 27.5045 17.3289 27.5045 20.7817C27.5045 22.3009 26.5287 23.2917 25.0302 23.2956C24.0022 23.2956 22.9735 23.3009 21.9448 23.2956C21.8669 23.2906 21.789 23.3055 21.7183 23.3389C21.6476 23.3723 21.5863 23.4231 21.5401 23.4867C20.7004 24.5051 19.8517 25.5159 19.0053 26.5274C18.4758 27.162 17.9652 27.1612 17.4327 26.5274C16.5855 25.511 15.7405 24.4957 14.8979 23.4813C14.8513 23.4178 14.7895 23.3671 14.7184 23.3341C14.6472 23.3011 14.569 23.2868 14.4909 23.2925C13.6422 23.3009 12.7927 23.2994 11.944 23.2925C10.4833 23.2856 9.50149 22.2863 9.50073 20.8046C9.50073 17.3329 9.50073 13.8613 9.50073 10.3896C9.50073 8.89413 10.4901 7.89331 11.9652 7.89331C14.1543 7.89382 16.3431 7.89458 18.5317 7.8956ZM18.5068 19.1692C20.1543 19.1378 21.5446 18.4811 22.7488 17.3885C22.8305 17.3151 22.8969 17.2261 22.9443 17.1265C22.9917 17.027 23.019 16.919 23.0248 16.8087C23.0306 16.6984 23.0146 16.588 22.9779 16.484C22.9412 16.38 22.8844 16.2843 22.8109 16.2027C22.6671 16.0344 22.4639 15.9296 22.2447 15.9106C22.0255 15.8916 21.8077 15.9599 21.6376 16.101C21.4281 16.2623 21.2314 16.4435 21.0143 16.5941C19.6671 17.5261 18.236 17.757 16.7383 17.023C16.2526 16.7845 15.823 16.4251 15.3767 16.1055C14.9856 15.8234 14.5068 15.8487 14.1997 16.1927C14.1243 16.2728 14.0655 16.3674 14.0268 16.4708C13.9881 16.5742 13.9703 16.6843 13.9743 16.7948C13.9783 16.9053 14.0041 17.0138 14.0502 17.1141C14.0963 17.2143 14.1618 17.3043 14.2428 17.3786C15.4561 18.4803 16.854 19.1409 18.5068 19.1692ZM15.0181 13.9089C15.2427 13.9141 15.4602 13.8295 15.6234 13.6734C15.7866 13.5173 15.8822 13.3025 15.8895 13.0756C15.89 12.8486 15.8036 12.6303 15.6486 12.4662C15.4935 12.3021 15.2818 12.2048 15.0575 12.1948C14.8331 12.1927 14.6169 12.2796 14.4552 12.4368C14.2936 12.5941 14.1994 12.8091 14.1929 13.0358C14.1897 13.1481 14.2087 13.2598 14.2486 13.3646C14.2885 13.4694 14.3485 13.5652 14.4253 13.6464C14.502 13.7276 14.5939 13.7926 14.6957 13.8377C14.7975 13.8827 14.907 13.907 15.0181 13.9089ZM21.5892 13.9089C21.8134 13.9135 22.0304 13.8286 22.193 13.6726C22.3557 13.5166 22.4511 13.3021 22.4584 13.0756C22.4582 12.849 22.3716 12.6313 22.2166 12.4677C22.0616 12.304 21.8502 12.2071 21.6263 12.1971C21.4024 12.1956 21.1869 12.2828 21.0258 12.44C20.8648 12.5972 20.7711 12.8119 20.7647 13.0381C20.7617 13.1501 20.7807 13.2617 20.8206 13.3663C20.8605 13.4709 20.9205 13.5664 20.9972 13.6474C21.0739 13.7284 21.1657 13.7932 21.2673 13.8381C21.3689 13.883 21.4784 13.9071 21.5892 13.9089Z" fill="#121C2A"/>
</g>
<defs>
<filter id="filter0_d_350_9244" x="0" y="0" width="37" height="35" filterUnits="userSpaceOnUse" color-interpolation-filters="sRGB">
<feFlood flood-opacity="0" result="BackgroundImageFix"/>
<feColorMatrix in="SourceAlpha" type="matrix" values="0 0 0 0 0 0 0 0 0 0 0 0 0 0 0 0 0 0 127 0" result="hardAlpha"/>
<feOffset dy="4"/>
<feGaussianBlur stdDeviation="2"/>
<feComposite in2="hardAlpha" operator="out"/>
<feColorMatrix type="matrix" values="0 0 0 0 0 0 0 0 0 0 0 0 0 0 0 0 0 0 0.25 0"/>
<feBlend mode="normal" in2="BackgroundImageFix" result="effect1_dropShadow_350_9244"/>
<feBlend mode="normal" in="SourceGraphic" in2="effect1_dropShadow_350_9244" result="shape"/>
</filter>
<clipPath id="clip0_350_9244">
<rect width="29" height="27" fill="white" transform="translate(4)"/>
</clipPath>
</defs>
</svg>
