<svg width="15" height="15" viewBox="0 0 15 15" fill="none" xmlns="http://www.w3.org/2000/svg">
<g clip-path="url(#clip0_326_7224)">
<path d="M0 4.14186C0.0878906 3.90711 0.142676 3.65153 0.267481 3.43762C0.619043 2.8352 1.16426 2.51477 1.86064 2.50978C3.52031 2.49834 5.18057 2.50479 6.84111 2.50685C7.22695 2.50685 7.50498 2.78092 7.50029 3.14272C7.49561 3.49807 7.21846 3.75893 6.8376 3.75893C5.21182 3.76049 3.58604 3.76049 1.96026 3.75893C1.49854 3.75893 1.25332 4.00101 1.25332 4.46111C1.25332 7.33187 1.25332 10.2025 1.25332 13.0731C1.25332 13.5282 1.49473 13.7726 1.94707 13.7726C4.81817 13.7726 7.68926 13.7726 10.5604 13.7726C11.0071 13.7726 11.2518 13.5211 11.2518 13.0684C11.2518 11.4351 11.2518 9.80169 11.2518 8.16805C11.2518 7.70971 11.6619 7.40689 12.0785 7.54832C12.3422 7.63635 12.5013 7.8711 12.5027 8.18536C12.5051 8.74787 12.5027 9.31039 12.5027 9.8726V12.9977C12.5027 14.0273 12.0234 14.6767 11.0397 14.9816C11.031 14.986 11.023 14.9917 11.0159 14.9983H1.46514C1.43057 14.9839 1.39688 14.966 1.36114 14.9552C0.866018 14.8055 0.480471 14.5103 0.240237 14.0534C0.131252 13.8457 0.0785159 13.6083 0.000293255 13.3844L0 4.14186Z" fill="white"/>
<path d="M14.9991 1.76508C14.9186 2.26597 14.6183 2.62953 14.2608 2.95993C14.0637 3.14128 13.8814 3.33876 13.706 3.51511L11.4961 1.30263C11.5119 1.28619 11.55 1.24394 11.5898 1.20462C11.8277 0.965766 12.0642 0.725736 12.3044 0.489522C12.7532 0.0493728 13.2876 -0.108493 13.8894 0.0760762C14.4911 0.260646 14.8503 0.683188 14.9733 1.3038C14.9795 1.32155 14.9878 1.33849 14.998 1.35427L14.9991 1.76508Z" fill="white"/>
<path d="M10.7925 2.01196L12.9968 4.22005C12.9725 4.24587 12.9406 4.28137 12.9069 4.31541C11.3229 5.90269 9.73727 7.4886 8.14996 9.07313C8.05338 9.16694 7.93319 9.23276 7.80221 9.26357C7.12077 9.41029 6.4358 9.54175 5.75143 9.67761C5.46901 9.73365 5.28473 9.55789 5.33981 9.27912C5.48083 8.5653 5.62487 7.85206 5.77194 7.13941C5.78917 7.05898 5.82819 6.98487 5.88473 6.9252C7.51149 5.29039 9.14039 3.65763 10.7714 2.02693C10.7781 2.02142 10.7851 2.01641 10.7925 2.01196Z" fill="white"/>
</g>
<defs>
<clipPath id="clip0_326_7224">
<rect width="15" height="15" fill="white"/>
</clipPath>
</defs>
</svg>
