<svg width="58" height="58" viewBox="0 0 58 58" fill="none" xmlns="http://www.w3.org/2000/svg">
<path d="M52.0409 40.9354C49.3186 42.3505 46.5963 43.7656 43.874 45.1808C39.6138 47.3888 35.3528 49.5951 31.0908 51.7995C30.9504 51.8723 30.8063 51.937 30.5889 52.0412C30.5889 51.7851 30.5889 51.6118 30.5889 51.4384C30.5997 44.4364 30.6076 37.4341 30.6124 30.4315C30.6124 30.0227 30.7483 29.8413 31.1116 29.6643C37.9268 26.3388 44.7368 23.0067 51.5417 19.6679C51.703 19.5898 51.8742 19.5332 52.0409 19.4658V40.9354Z" fill="url(#paint0_linear_235_6278)"/>
<path d="M5.95898 19.4658C6.08708 19.4992 6.21274 19.5411 6.33509 19.5915C8.98133 20.8846 11.6221 22.1858 14.2729 23.4673C14.5667 23.61 14.6454 23.7769 14.6436 24.082C14.6327 26.4152 14.6327 28.7484 14.6436 31.0817C14.6436 31.8436 15.0052 32.408 15.705 32.7113C16.3731 33.0012 17.0069 32.8765 17.5466 32.3856C17.9616 32.0078 18.1062 31.5232 18.1035 30.9704C18.0936 29.2806 18.1035 27.5908 18.1035 25.901V25.4039C18.2934 25.481 18.4308 25.5268 18.5555 25.5905C21.3356 26.9492 24.1111 28.3177 26.8993 29.6611C27.2736 29.8406 27.4128 30.0371 27.411 30.4607C27.3929 37.6542 27.3857 44.8477 27.3893 52.0412H27.2989C27.1181 51.9335 26.9499 51.815 26.7664 51.719C20.3173 48.3789 13.8682 45.043 7.41908 41.7113C6.76904 41.3757 6.2284 40.9826 5.9626 40.2853L5.95898 19.4658Z" fill="url(#paint1_linear_235_6278)"/>
<path d="M29.3356 5.95898L36.9451 9.65409C35.6325 10.3227 34.4158 10.9427 33.1983 11.5609C27.5751 14.4173 21.9537 17.2752 16.3341 20.1346C16.0252 20.2919 15.7825 20.3072 15.4645 20.149C12.9687 18.9143 10.463 17.6985 7.96185 16.4755C7.84227 16.4171 7.72722 16.3506 7.54785 16.2544C8.4456 15.8132 9.28717 15.398 10.1306 14.9847C16.0491 12.0857 21.9697 9.18621 27.8925 6.28608C28.1045 6.18274 28.3119 6.06862 28.5212 5.95898H29.3356Z" fill="url(#paint2_linear_235_6278)"/>
<path d="M19.8628 22.1727C22.7879 20.6605 25.653 19.1782 28.5199 17.6986C32.4481 15.6685 36.3787 13.6428 40.3117 11.6218C40.4828 11.5313 40.7596 11.4815 40.9137 11.5584C43.9159 13.0344 46.9073 14.5321 49.9014 16.0262C49.9408 16.0461 49.9757 16.0751 50.0546 16.1276C49.8799 16.2226 49.7294 16.3086 49.5753 16.3882C42.8166 19.7722 36.0568 23.1507 29.2957 26.5238C29.1165 26.6143 28.8191 26.6541 28.648 26.5708C25.8331 25.189 23.028 23.7835 20.222 22.3818C20.1217 22.332 20.0187 22.265 19.8628 22.1727Z" fill="url(#paint3_linear_235_6278)"/>
<defs>
<linearGradient id="paint0_linear_235_6278" x1="30.5889" y1="35.7535" x2="52.0409" y2="35.7535" gradientUnits="userSpaceOnUse">
<stop stop-color="#C9A227"/>
<stop offset="1" stop-color="#FFD700"/>
</linearGradient>
<linearGradient id="paint1_linear_235_6278" x1="5.95898" y1="35.7535" x2="27.411" y2="35.7535" gradientUnits="userSpaceOnUse">
<stop stop-color="#C9A227"/>
<stop offset="1" stop-color="#FFD700"/>
</linearGradient>
<linearGradient id="paint2_linear_235_6278" x1="7.54785" y1="13.1097" x2="36.9451" y2="13.1097" gradientUnits="userSpaceOnUse">
<stop stop-color="#C9A227"/>
<stop offset="1" stop-color="#FFD700"/>
</linearGradient>
<linearGradient id="paint3_linear_235_6278" x1="19.8628" y1="19.0685" x2="50.0546" y2="19.0685" gradientUnits="userSpaceOnUse">
<stop stop-color="#C9A227"/>
<stop offset="1" stop-color="#FFD700"/>
</linearGradient>
</defs>
</svg>
