<svg width="58" height="58" viewBox="0 0 58 58" fill="none" xmlns="http://www.w3.org/2000/svg">
<g clip-path="url(#clip0_235_6284)">
<path d="M27.1875 0H30.8125C30.9586 0.0305859 31.1036 0.0679685 31.2509 0.0917575C32.7587 0.325117 34.2868 0.466719 35.7708 0.804298C46.835 3.31914 55.7344 12.7917 57.5548 23.9465C57.7304 25.0227 57.8527 26.1068 58 27.1875V30.8125C57.9671 30.9768 57.9309 31.1399 57.9026 31.3053C57.5956 33.0861 57.42 34.9008 56.9635 36.642C54.1484 47.381 44.9307 55.7491 33.9991 57.5627C32.9422 57.7383 31.8751 57.855 30.8125 58H27.1875C27.0414 57.9683 26.8975 57.9286 26.7502 57.9071C25.4452 57.7157 24.1278 57.5865 22.8364 57.3294C11.6215 55.0898 2.35172 45.4847 0.458789 34.1656C0.273008 33.0532 0.151797 31.9306 0 30.8125V27.1875C0.146133 26.1079 0.261679 25.0238 0.444062 23.9499C2.41855 12.3046 11.668 2.8241 23.277 0.566406C24.5684 0.319453 25.8836 0.186914 27.1875 0ZM51.1793 29.0057C51.1861 16.8132 41.2502 6.86031 29.034 6.82066C16.8415 6.78101 6.83086 16.777 6.82066 28.9943C6.81273 41.1789 16.7554 51.1386 28.966 51.1793C41.1573 51.219 51.1725 41.2219 51.1793 29.0057Z" fill="url(#paint0_linear_235_6284)"/>
<path d="M47.7854 28.9909C47.7922 39.3176 39.3607 47.7616 29.0215 47.7865C18.6823 47.8115 10.1964 39.3165 10.2168 28.9818C10.2372 18.6472 18.6823 10.2111 29.0079 10.2168C39.3335 10.2225 47.7786 18.6597 47.7854 28.9909ZM29.06 20.7032L20.7633 29L29 37.2423L37.3046 28.9467L29.06 20.7032Z" fill="url(#paint1_linear_235_6284)"/>
</g>
<defs>
<linearGradient id="paint0_linear_235_6284" x1="0" y1="29" x2="58" y2="29" gradientUnits="userSpaceOnUse">
<stop stop-color="#C9A227"/>
<stop offset="1" stop-color="#FFD700"/>
</linearGradient>
<linearGradient id="paint1_linear_235_6284" x1="10.2168" y1="29.0017" x2="47.7854" y2="29.0017" gradientUnits="userSpaceOnUse">
<stop stop-color="#C9A227"/>
<stop offset="1" stop-color="#FFD700"/>
</linearGradient>
<clipPath id="clip0_235_6284">
<rect width="58" height="58" fill="white"/>
</clipPath>
</defs>
</svg>
