<svg width="84" height="60" viewBox="0 0 84 60" fill="none" xmlns="http://www.w3.org/2000/svg">
<g clip-path="url(#clip0_314_2425)">
<path d="M84.0005 41.9026C83.5705 43.6406 83.2932 45.4313 82.6848 47.1059C79.9459 54.6447 72.4215 60.1204 64.2845 60C59.0905 59.9219 53.8965 59.9852 48.7026 59.9852H47.662V42.0948H52.4303C53.4881 42.0948 54.6232 42.268 55.2251 41.0791C55.8077 39.9345 55.0316 39.1448 54.4275 38.3339C50.8932 33.5234 47.3553 28.7157 43.8139 23.9109C42.6186 22.2891 41.3609 22.2891 40.1592 23.9109C36.5231 28.8481 32.8899 33.7859 29.2596 38.7245C29.111 38.9169 28.9732 39.1171 28.8468 39.3243C28.0944 40.6187 28.8619 42.042 30.3839 42.0885C32.05 42.137 33.7205 42.1033 35.3866 42.1054H36.3217V59.9958H35.3694C29.4079 59.9958 23.4486 59.9662 17.4893 59.9958C11.5708 60.0338 7.02396 57.4617 3.59929 52.9004C0.729278 49.074 -0.485368 44.726 0.183227 39.9873C0.851822 35.2486 3.23812 31.4412 7.19595 28.6137C7.41188 28.4486 7.63963 28.2989 7.87744 28.166C8.3332 27.9337 8.44069 27.6592 8.28591 27.1334C7.73711 25.3605 7.63641 23.483 7.99253 21.6633C8.34865 19.8436 9.15086 18.1366 10.3297 16.6899C11.5086 15.2433 13.0286 14.1006 14.7582 13.3609C16.4878 12.6211 18.3749 12.3065 20.2561 12.4443C21.2816 12.5098 22.292 12.7885 23.3497 12.9743C24.0549 11.8657 24.7105 10.624 25.5619 9.52803C31.2482 2.19617 38.7725 -1.05375 48.0791 0.30197C57.9016 1.72949 65.5206 9.05078 67.305 18.6105C67.5952 20.1563 68.1391 20.6947 69.6418 21.1699C77.8455 23.7631 82.4204 29.4752 83.8306 37.7447C83.8736 38.0044 83.9424 38.26 84.0005 38.5197V41.9026Z" fill="#254F8B" fill-opacity="0.31"/>
</g>
<defs>
<clipPath id="clip0_314_2425">
<rect width="84" height="60" fill="white"/>
</clipPath>
</defs>
</svg>
