<svg width="58" height="47" viewBox="0 0 58 47" fill="none" xmlns="http://www.w3.org/2000/svg">
<path d="M29.0058 47.0076C25.2496 46.9547 21.4984 46.7874 17.8926 45.6236C16.7067 45.2461 15.5814 44.6334 14.4878 44.0231C13.6635 43.5626 13.3967 42.7649 13.5421 41.8062C14.0706 38.3474 14.4347 34.8584 15.1149 31.4323C16.23 25.8107 21.4845 21.5844 27.2396 21.5026C29.3889 21.4712 31.5382 21.3441 33.6509 21.899C36.1192 22.5532 38.3383 23.9187 40.0294 25.8239C41.7205 27.7291 42.8082 30.0891 43.1559 32.6075C43.5795 35.6574 44.0017 38.7085 44.4695 41.7521C44.6301 42.7989 44.3115 43.6394 43.424 44.1074C42.2267 44.7453 40.9876 45.3568 39.6955 45.7532C36.22 46.8126 32.6078 46.9459 29.0058 47.0076Z" fill="url(#paint0_linear_235_6270)"/>
<path d="M29.0007 20.1326C27.0002 20.1326 25.0447 19.5423 23.3814 18.4363C21.7181 17.3303 20.4217 15.7582 19.6562 13.919C18.8906 12.0797 18.6903 10.0559 19.0806 8.10336C19.4708 6.15082 20.4342 4.35731 21.8487 2.94961C23.2632 1.54191 25.0654 0.58326 27.0274 0.194877C28.9895 -0.193506 31.0231 0.0058261 32.8713 0.767667C34.7195 1.52951 36.2991 2.81964 37.4105 4.47491C38.5219 6.13019 39.1151 8.07627 39.1151 10.0671C39.1171 11.3894 38.8569 12.6992 38.3493 13.9213C37.8417 15.1435 37.0967 16.2539 36.1571 17.1889C35.2175 18.124 34.1017 18.8654 32.8737 19.3705C31.6456 19.8756 30.3295 20.1346 29.0007 20.1326Z" fill="url(#paint1_linear_235_6270)"/>
<path d="M17.0176 22.9645C14.8607 25.0078 13.3347 27.3543 12.6545 30.1437C12.2044 31.9883 11.992 33.8907 11.686 35.7691C11.5393 36.6776 11.4433 37.5961 11.2751 38.5007C11.2448 38.6668 10.9805 38.9197 10.8288 38.9159C8.18388 38.858 5.56424 38.59 3.14689 37.4325C2.27199 37.0122 1.478 36.392 0.715629 35.7792C0.108762 35.2898 -0.10112 34.5739 0.0442755 33.7887C0.297137 32.4311 0.477947 31.0559 0.818045 29.7197C2.52612 23.0022 10.0854 19.551 16.3386 22.6034C16.5435 22.704 16.742 22.8172 17.0176 22.9645Z" fill="url(#paint2_linear_235_6270)"/>
<path d="M41.0786 22.9368C47.1119 19.4491 55.2553 22.4625 57.1833 29.6871C57.5437 31.0371 57.7169 32.4375 57.9685 33.8165C58.1176 34.6305 57.8155 35.2936 57.2428 35.8585C55.9102 37.1721 54.2539 37.9106 52.465 38.2617C50.7392 38.6001 48.9691 38.7134 47.2193 38.9348C46.7958 38.9889 46.7528 38.7436 46.7048 38.4164C46.3432 35.9529 46.0322 33.478 45.5745 31.0321C45.0296 28.1168 43.6047 25.6218 41.5287 23.4967C41.3821 23.347 41.2392 23.1948 41.0963 23.0413C41.0786 23.0287 41.0862 23.0023 41.0786 22.9368Z" fill="url(#paint3_linear_235_6270)"/>
<path d="M11.4771 20.1327C10.3281 20.1356 9.19416 19.8728 8.16471 19.3649C7.13526 18.857 6.23849 18.1181 5.54515 17.2062C4.85181 16.2944 4.38087 15.2348 4.16951 14.1108C3.95815 12.9869 4.01213 11.8294 4.32721 10.7298C4.64228 9.6302 5.20983 8.61849 5.98507 7.77452C6.7603 6.93054 7.722 6.27741 8.7943 5.86663C9.8666 5.45586 11.0202 5.29869 12.1639 5.40753C13.3077 5.51637 14.4104 5.88824 15.3851 6.4938C15.7467 6.71398 15.9199 6.91907 15.82 7.38963C15.1335 10.6106 15.6228 13.6731 17.2107 16.5506C17.4484 16.9809 17.389 17.235 17.0843 17.5798C16.392 18.3849 15.5318 19.0304 14.5635 19.4712C13.5951 19.9121 12.542 20.1378 11.4771 20.1327Z" fill="url(#paint4_linear_235_6270)"/>
<path d="M45.9233 20.131C44.2101 20.0945 42.3541 19.2138 40.8736 17.5203C40.6081 17.2183 40.5462 16.9868 40.7636 16.5955C42.3731 13.7016 42.8763 10.614 42.1784 7.36535C42.0747 6.87968 42.2859 6.69221 42.6373 6.47832C43.9466 5.6759 45.4741 5.29817 47.0086 5.39737C48.543 5.49657 50.0086 6.06779 51.2025 7.03204C52.3965 7.99629 53.2599 9.30592 53.6734 10.7798C54.0868 12.2537 54.0298 13.819 53.5104 15.2593C52.4572 18.2148 49.6757 20.1361 45.9233 20.131Z" fill="url(#paint5_linear_235_6270)"/>
<defs>
<linearGradient id="paint0_linear_235_6270" x1="13.5044" y1="34.2377" x2="44.5095" y2="34.2377" gradientUnits="userSpaceOnUse">
<stop stop-color="#C9A227"/>
<stop offset="1" stop-color="#FFD700"/>
</linearGradient>
<linearGradient id="paint1_linear_235_6270" x1="18.8862" y1="10.0671" x2="39.1151" y2="10.0671" gradientUnits="userSpaceOnUse">
<stop stop-color="#C9A227"/>
<stop offset="1" stop-color="#FFD700"/>
</linearGradient>
<linearGradient id="paint2_linear_235_6270" x1="0" y1="30.1994" x2="17.0176" y2="30.1994" gradientUnits="userSpaceOnUse">
<stop stop-color="#C9A227"/>
<stop offset="1" stop-color="#FFD700"/>
</linearGradient>
<linearGradient id="paint3_linear_235_6270" x1="41.0786" y1="30.2141" x2="58.0063" y2="30.2141" gradientUnits="userSpaceOnUse">
<stop stop-color="#C9A227"/>
<stop offset="1" stop-color="#FFD700"/>
</linearGradient>
<linearGradient id="paint4_linear_235_6270" x1="4.04297" y1="12.7534" x2="17.3569" y2="12.7534" gradientUnits="userSpaceOnUse">
<stop stop-color="#C9A227"/>
<stop offset="1" stop-color="#FFD700"/>
</linearGradient>
<linearGradient id="paint5_linear_235_6270" x1="40.6318" y1="12.7564" x2="53.9466" y2="12.7564" gradientUnits="userSpaceOnUse">
<stop stop-color="#C9A227"/>
<stop offset="1" stop-color="#FFD700"/>
</linearGradient>
</defs>
</svg>
